<svg width="1024" height="1024" viewBox="0 0 1024 1024" fill="none" xmlns="http://www.w3.org/2000/svg">
<g clip-path="url(#clip0_1_850)">
<path d="M0 0H1024V1024H0V0Z" fill="#FEFEFE"/>
<path d="M496.818 45.2159C505.633 44.3202 515.096 44.6764 523.952 44.9605C569.294 46.4152 614.528 58.2038 652.254 83.9384C714.135 126.15 739.236 194.14 752.639 264.929C754.688 266.509 756.675 268.164 758.599 269.895C768.313 278.645 780.664 293.117 781.101 306.957C781.201 310.131 780.358 314.568 777.936 316.832C775.92 318.718 773.026 318.577 770.464 318.565C778.004 332.203 784.649 348.996 782.522 364.913C782.025 368.637 780.81 372.539 777.606 374.81C774.503 377.009 771.872 376.89 768.289 376.365C769.541 381.686 769.995 387.033 770.476 392.462C779.588 404.021 788.35 417.057 793.44 430.932C799.996 448.797 798.788 464.69 790.86 481.851C804.936 499.304 818.391 517.213 829.056 537.005C872.341 617.331 883.345 722.233 857.158 809.607C864.876 810.662 872.3 811.978 879.758 814.263C890.579 817.579 937.684 838.584 941.06 846.493C941.533 847.602 941.673 848.245 941.202 849.37C937.554 858.08 906.777 873.927 898.386 877.224C903.99 879.618 922.689 888.296 926.898 891.723C927.52 892.736 927.567 893.653 927.298 894.793C925.534 902.253 908.367 914.108 901.86 918.293C857.566 946.775 802.572 957.002 750.695 949.742C737.621 947.913 725.263 944.081 712.407 941.336C706.788 943.279 701.393 946.012 695.827 948.142C686.917 951.552 677.752 954.393 668.699 957.403C668.302 961.18 667.145 965.176 665.17 968.425C662.909 972.145 659.418 975.051 655.103 975.981C649.366 977.218 644.807 974.812 640.201 971.758L639.495 972.46C635.437 976.477 631.054 979.629 625.047 979.439C619.757 979.272 616.189 976.56 612.8 972.823C610.855 974.065 608.739 975.369 606.563 976.155C602.572 977.596 598.218 977.631 594.386 975.695C589.057 973.003 586.93 968.226 585.266 962.845C566.621 965.164 547.907 966.575 529.125 967.08C499.64 968.972 468.114 966.119 438.749 963.426C437.869 966.328 436.714 969.018 434.881 971.455C432.269 974.925 428.649 977.429 424.271 977.934C418.967 978.545 415.415 976.122 411.567 972.929C410.508 973.995 409.389 974.995 408.212 975.929C407.768 976.274 407.308 976.597 406.831 976.896C406.354 977.195 405.864 977.47 405.36 977.721C404.856 977.971 404.341 978.195 403.815 978.394C403.288 978.593 402.753 978.765 402.21 978.91C401.666 979.055 401.116 979.173 400.561 979.264C400.006 979.354 399.447 979.416 398.885 979.45C398.324 979.485 397.762 979.491 397.199 979.469C396.637 979.447 396.077 979.397 395.52 979.319C390.012 978.492 386.766 975.182 383.651 970.916C380.248 973.503 377.014 975.353 372.587 975.483C372.055 975.497 371.524 975.483 370.993 975.442C370.462 975.401 369.935 975.332 369.411 975.236C368.888 975.14 368.37 975.017 367.859 974.868C367.348 974.719 366.847 974.543 366.354 974.341C365.861 974.14 365.38 973.913 364.911 973.662C364.442 973.411 363.987 973.135 363.546 972.836C363.105 972.538 362.681 972.218 362.274 971.875C361.867 971.532 361.478 971.169 361.108 970.786C357.196 966.796 355.476 961.404 355.461 955.92C341.99 950.84 329.836 945.148 317.264 938.124C280.989 948.817 246.031 954.318 208.169 949.799C174.829 945.82 141.015 934.244 114.19 913.654C108.854 909.559 102.733 904.662 98.6736 899.246C97.2168 897.302 95.8784 894.702 96.5041 892.195C97.5189 888.13 117.026 879.67 121.548 877.429C117.783 875.51 114.056 873.518 110.369 871.454C104.119 867.885 86.3092 857.289 84.8226 850.576C84.4605 848.941 84.6641 847.292 85.711 845.937C88.2607 842.639 96.0504 839.917 99.8619 837.923C124.17 825.205 140.568 815.251 168.309 810.767C166.577 805.514 164.995 800.216 163.562 794.873C162.129 789.53 160.849 784.152 159.72 778.737C158.591 773.322 157.617 767.879 156.796 762.409C155.975 756.939 155.309 751.45 154.798 745.942C148.352 678.018 161.669 596.547 196.245 537.11C207.379 517.971 221.058 501.466 235.122 484.479C231.044 476.834 227.58 468.901 226.287 460.274C222.389 434.272 238.69 410.246 253.424 390.421C253.824 386.473 254.476 382.519 255.008 378.585C252.984 378.884 251.034 379.111 249.035 378.526C245.938 377.62 243.483 375.401 241.97 372.597C235.401 360.424 241.299 340.904 246.399 329.229C247.861 325.883 250.811 322.102 251.774 318.762C250.347 317.828 248.815 316.861 247.574 315.69C245.106 313.362 244.035 309.971 243.874 306.659C243.08 290.347 259.681 276.662 269.607 265.725C271.252 257.132 273.817 248.679 276.24 240.277C284.868 210.355 296.319 176.942 311.45 149.763C318.428 137.231 326.456 125.817 336.016 115.113C368.024 79.2732 414.99 57.2186 461.846 48.9111C473.417 46.8596 485.096 45.8863 496.818 45.2159Z" fill="black"/>
<path d="M302.153 184.691L307.138 186.714C304.849 191.269 297.883 204.722 294.166 207.607L293.698 207.098C296.205 199.542 299.29 192.122 302.153 184.691Z" fill="#BBDC7D"/>
<path d="M255.699 291.507C255.62 293.319 255.618 295.167 255.257 296.947C254.851 299.445 254.217 301.445 255.679 303.65C257.151 304.402 258.436 304.176 259.953 303.65C264.835 301.956 272.481 295.333 277.604 296.564C278.017 297.476 278.139 297.268 277.748 298.315C277.323 299.454 276.598 300.473 275.472 301.005C275.334 301.071 275.184 301.109 275.039 301.16C268.276 301.589 261.766 308.949 255.816 311.72C254.662 312.258 254.07 312.413 252.894 311.769C251.461 310.985 250.668 309.527 250.376 307.97C249.322 302.335 252.581 295.962 255.699 291.507Z" fill="#84C462"/>
<path d="M717.783 171.951C723.96 185.348 729.542 199.362 733.283 213.654C732.816 214.329 733.148 214.066 732.184 214.291C728.834 211.076 726.766 203.753 724.524 199.513C720.583 192.057 716.554 184.315 711.694 177.417C713.686 175.547 715.656 173.67 717.783 171.951Z" fill="#84C462"/>
<path d="M295.027 579.437C295.667 573.944 299.272 554.808 302.147 550.484C307.569 553.828 313.092 556.948 318.658 560.043C315.041 567.749 308.977 576.209 300.547 579.006C298.724 579.611 296.919 579.594 295.027 579.437Z" fill="#84C462"/>
<path d="M221.219 897.776C227.502 902.317 233.781 906.789 240.594 910.519C216.155 910.267 200.653 908.867 176.815 902.618C179.763 901.663 183.213 901.804 186.289 901.664C194.649 901.283 214.775 901.86 221.219 897.776Z" fill="#53AA53"/>
<path d="M691.485 130.075C701.781 142.026 710.347 156.672 717.074 170.909C715.107 172.443 713.167 174.053 711.136 175.5C705.021 161.289 693.114 146.883 683.758 134.591C686.31 133.05 688.838 131.449 691.485 130.075Z" fill="#BBDC7D"/>
<path d="M330.145 132.765C333.193 135.01 336.504 136.891 339.748 138.835C332.76 147.246 325.326 155.65 319.385 164.842C316.852 168.76 310.002 182.195 307.05 184.435C305.702 184.078 304.626 183.843 303.536 182.911C304.565 172.917 323.403 142.335 330.145 132.765Z" fill="#BBDC7D"/>
<path d="M855.364 815.545C861.108 816.364 866.749 817.247 872.39 818.628C870.587 821.756 867.944 827.461 868.84 831.111C869.255 832.802 870.314 834.021 871.859 834.801C875.223 836.498 880.712 836.619 884.482 837.157C871.515 839.269 858.187 839.953 845.095 841.079C849.066 832.689 852.352 824.324 855.364 815.545Z" fill="#37BC83"/>
<path d="M285.083 538.562C290.527 542.863 296.381 546.635 302.147 550.484C299.272 554.808 295.667 573.944 295.027 579.437C286.666 575.137 284.238 568.394 281.177 560.178C282.047 552.988 283.786 545.698 285.083 538.562Z" fill="#53AA53"/>
<path d="M239.237 492.038C251.666 508.526 265.284 522.845 281.546 535.639L277.188 552.874C276.481 552.251 275.807 551.595 275.165 550.906C265.331 540.483 258.945 527.664 251.459 515.622C247.618 509.442 242.784 503.031 239.892 496.381C239.267 494.945 239.207 493.584 239.237 492.038Z" fill="#53AA53"/>
<path d="M844.231 843.11C855.814 842.486 867.478 840.944 878.976 839.426L878.759 840.281C878.529 841.151 878.2 841.857 877.806 842.662C877.205 843.891 876.764 845.169 877.377 846.513C878.594 849.179 883.018 850.274 885.63 850.862C890.736 852.011 896.178 851.809 901.175 853.14C878.208 859.9 863.531 855.005 841.541 848.396C842.384 846.6 843.28 844.852 844.231 843.11Z" fill="#37BC83"/>
<path d="M760.689 281.462C766.672 287.465 774.784 299.023 774.906 307.914C774.922 309.037 774.635 309.757 774.132 310.741C772.808 311.868 771.746 312.175 770.046 312.012C761.517 311.195 750.019 301.007 741.534 297.784C739.09 296.156 737.148 291.917 736.589 289.108C736.335 287.831 736.436 286.94 737.135 285.821C740.735 284.089 743.044 286.664 746.581 286.863C746.854 286.879 747.128 286.882 747.402 286.891C747.487 287.021 747.56 287.16 747.658 287.281C750.161 290.376 758.507 298.13 762.622 298.187C763.355 298.197 763.245 298.043 763.914 297.476C766.066 291.123 760.725 287.288 760.674 282.19C760.672 281.947 760.684 281.704 760.689 281.462Z" fill="#84C462"/>
<path d="M609.952 934.56C612.826 934.314 615.743 933.928 618.349 935.423C618.93 936.526 618.961 936.536 618.383 937.737C617.183 940.231 615.179 942.45 613.742 944.833C609.755 951.445 609.366 959.174 609.634 966.659C606.97 968.979 604.496 970.361 601.124 971.44C599.818 971.256 598.506 970.981 597.333 970.349C594.946 969.063 593.04 966.408 592.272 963.849C590.498 957.94 592.158 950.776 595.186 945.56C598.669 939.559 603.393 936.349 609.952 934.56Z" fill="#DCA534"/>
<path d="M372.66 91.8645C375.075 94.2115 377.39 96.6852 379.746 99.0937C365.362 111.007 351.762 122.373 340.434 137.403C337.196 135.696 334.059 133.866 330.925 131.974C341.514 115.928 356.914 102.693 372.66 91.8645Z" fill="#BBDC7D"/>
<path d="M819.356 834.39C842.182 832.183 842.182 806.81 852.361 802.88C851.6 805.879 850.759 808.855 849.84 811.809C848.921 814.763 847.923 817.69 846.848 820.591C845.773 823.492 844.621 826.363 843.393 829.202C842.165 832.041 840.863 834.846 839.486 837.617C838.109 840.387 836.659 843.119 835.136 845.812C833.613 848.505 832.02 851.156 830.356 853.764C828.693 856.373 826.961 858.935 825.161 861.451C823.361 863.968 821.495 866.434 819.564 868.851C819.798 857.341 819.885 845.893 819.356 834.39Z" fill="#53AA53"/>
<path d="M410.513 934.175C411.276 934.19 412.028 934.21 412.789 934.268C418.694 934.717 423.87 937.014 427.713 941.627C431.692 946.403 433.702 953.229 433.012 959.405C432.442 964.505 430.095 968.271 426.098 971.377C425.037 971.708 423.973 971.895 422.862 971.938C419.292 972.076 416.864 969.464 414.442 967.235C414.618 965.935 414.76 964.631 414.867 963.323C415.763 952.436 411.137 944.469 404.392 936.451C406.431 935.293 408.212 934.627 410.513 934.175Z" fill="#DCA534"/>
<path d="M374.079 90.8363C391.522 78.48 412.236 69.1398 432.649 62.9805C434.531 65.9193 436.131 69.1225 437.826 72.1775C416.434 79.9818 401.123 87.4104 381.509 98.8021C378.94 96.253 376.535 93.497 374.079 90.8363Z" fill="#BBDC7D"/>
<path d="M307.138 186.714C311.371 188.165 315.575 189.697 319.75 191.31C303.528 209.309 291.962 231.484 285.022 254.612C281.877 256.896 278.699 259.133 275.488 261.324C277.78 251.645 289.403 214.309 293.698 207.098L294.166 207.607C297.883 204.722 304.849 191.269 307.138 186.714Z" fill="#53AA53"/>
<path d="M434.537 62.4531C456.237 55.7875 478.451 52.5266 501.108 51.4043L503.218 63.0235C488.944 63.6412 474.695 64.78 460.626 67.3791C453.676 68.663 446.906 70.4902 440.019 72.03C438.17 68.8499 436.343 65.6576 434.537 62.4531Z" fill="#BBDC7D"/>
<path d="M438.298 950.095C465.512 958.486 522.05 957.611 550.725 954.108C563.01 952.607 575.105 949.622 587.37 947.891C586.506 950.836 585.576 953.762 585.08 956.796C572.955 957.926 560.81 958.786 548.646 959.377C536.483 959.968 524.312 960.288 512.134 960.337C499.956 960.386 487.783 960.166 475.615 959.675C463.447 959.184 451.296 958.422 439.162 957.391C438.924 954.951 438.724 952.51 438.298 950.095Z" fill="#84C462"/>
<path d="M701.195 187.432C704.812 184.205 708.253 180.829 711.694 177.417C716.554 184.315 720.583 192.057 724.524 199.513C726.766 203.753 728.834 211.076 732.184 214.291C733.148 214.066 732.816 214.329 733.283 213.654C734.796 217.186 735.713 221.354 736.792 225.054C740.226 236.834 743.421 248.805 745.427 260.921L737.742 255.651C733.459 229.117 719.693 206.539 701.195 187.432Z" fill="#53AA53"/>
<path d="M757.081 762.317C760.718 782.119 749.504 810.366 738.383 826.347C734.805 831.488 729.041 839.173 722.52 840.362C719.667 840.883 716.825 839.995 714.576 838.209C713.403 837.277 712.38 836.099 711.48 834.911C711.721 827.962 712.153 821.012 712.034 814.058C713.644 817.631 715.94 824.662 719.484 826.583C719.662 826.678 719.844 826.763 720.031 826.839C720.218 826.915 720.409 826.981 720.602 827.038C720.795 827.094 720.991 827.14 721.19 827.177C721.388 827.214 721.588 827.24 721.789 827.255C721.99 827.271 722.192 827.277 722.393 827.272C722.594 827.267 722.795 827.253 722.995 827.228C723.196 827.203 723.394 827.167 723.59 827.121C723.787 827.076 723.98 827.02 724.171 826.955C735.745 823.095 748.304 788.956 752.221 777.066C753.51 773.152 754.77 766.236 756.702 762.935C756.824 762.727 756.955 762.523 757.081 762.317Z" fill="#53AA53"/>
<path d="M703.018 561.413C713.339 557.054 728.658 546.192 737.955 539.363C738.547 544.698 739.089 550.044 739.92 555.349C740.523 558.778 741.084 562.221 741.738 565.64C736.802 571.154 732.603 575.527 725.097 577.213C712.303 574.025 711.731 566.74 703.018 561.413Z" fill="#84C462"/>
<path d="M312.072 826.935C312.048 828.279 312.028 829.658 311.835 830.992C311.405 833.964 310.193 839.12 307.412 840.723C306.147 841.452 304.906 841.639 303.487 841.331C296.077 839.723 287.435 829.101 283.312 823.16C272.964 808.248 264.377 785.841 267.6 767.499C267.752 767.725 267.91 767.946 268.058 768.175C270.205 771.511 270.57 777.291 272.042 781.138C277.989 796.686 291.955 821.844 309.313 826.377C310.226 826.615 311.142 826.783 312.072 826.935Z" fill="#53AA53"/>
<path d="M503.696 51.2207C530.406 50.8455 557.667 53.0942 583.533 60.0163C582.216 63.4341 580.866 66.8099 579.351 70.1452C570.878 69.1692 562.439 67.0053 553.967 65.7849C537.755 63.4496 522.13 62.9195 505.781 63.1081L503.696 51.2207Z" fill="#BBDC7D"/>
<path d="M872.39 818.628C890.096 824.026 906.045 832.015 922.026 841.276C917.105 845.628 911.359 848.174 905.906 851.688C904.275 852.079 902.749 852.56 901.175 853.14C896.178 851.809 890.736 852.011 885.63 850.862C883.018 850.274 878.594 849.179 877.377 846.513C876.764 845.169 877.205 843.891 877.806 842.662C878.2 841.857 878.529 841.151 878.759 840.281L878.976 839.426C881.964 839.081 885.362 838.617 888.085 837.277C887.057 836.758 885.633 837.093 884.482 837.157C880.712 836.619 875.223 836.498 871.859 834.801C870.314 834.021 869.255 832.802 868.84 831.111C867.944 827.461 870.587 821.756 872.39 818.628Z" fill="#54D197"/>
<path d="M655.491 854.489C658.575 858.533 658.072 865.402 661.783 868.912C662.515 869.045 663.206 869.161 663.949 869.009C678.523 866.027 694.775 835.857 700.566 823.01C703.47 816.567 705.714 808.262 709.836 802.58C709.931 802.45 710.031 802.323 710.129 802.194C708.325 831.484 695.441 859.975 673.322 879.582C669.48 882.987 663.213 888.446 657.752 887.922C655.87 887.742 654.037 886.713 652.95 885.156C651.715 883.386 651.019 880.97 650.478 878.893C652.423 870.794 654.394 862.759 655.491 854.489Z" fill="#53AA53"/>
<path d="M654.827 607.437C664.929 603.616 674.884 599.446 684.693 594.925C689.733 592.56 695.43 588.229 700.715 586.855C699.536 599.043 697.24 618.293 687.274 626.896C684.861 628.979 681.931 630.229 678.708 629.991C672.109 629.503 666.346 623.47 662.38 618.617C659.569 615.178 656.935 611.349 654.827 607.437Z" fill="#BBDC7D"/>
<path d="M217.386 746.658C206.239 785.548 200.313 834.54 207.945 874.545L207.285 874.85C207.41 875.033 207.532 875.218 207.66 875.398C207.672 875.415 207.69 875.428 207.704 875.442C207.308 875.177 207.104 875.083 206.8 874.643C205.134 872.229 204.452 867.643 203.766 864.787C196.455 834.367 197.117 801.484 198.649 770.453C199.044 762.446 199.048 754.038 200.287 746.128C204.831 747.572 212.298 746.133 217.386 746.658Z" fill="#54D197"/>
<path d="M830.516 875.445C829.429 879.371 828.415 882.474 830.551 886.304C832.79 890.321 837.537 892.304 841.788 893.358C849.921 895.376 859.629 896.002 867.995 896.053C873.409 896.086 878.911 895.678 884.263 896.569C855.411 905.588 821.609 908.584 791.835 902.705C796.696 899.487 801.329 895.727 805.577 891.741C810.099 887.497 814.399 882.313 819.866 879.282C823.212 877.427 826.862 876.494 830.516 875.445Z" fill="#37BC83"/>
<path d="M316.472 800.861C316.61 801.091 316.752 801.32 316.886 801.553C319.388 805.927 321.206 816.273 323.143 821.553C330.194 840.764 347.857 868.65 368.099 875.754C368.013 864.263 366.565 856.149 368.177 844.23C368.367 857.088 371.221 867.991 375.907 879.883C374.755 882.907 373.437 886.615 370.961 888.802C369.899 889.74 368.684 890.231 367.258 890.133C357.867 889.487 344.852 875.998 339.18 869.176C323.824 850.707 314.328 825.072 316.472 800.861Z" fill="#53AA53"/>
<path d="M371.573 850.354C371.785 850.548 372.001 850.737 372.209 850.935C374.755 853.369 379.678 861.934 382.736 865.619C394.05 879.257 415.139 895.428 433.755 895.523C436 895.534 438.907 895.677 440.884 894.524C443.797 899.052 446.788 903.528 449.855 907.953C446.896 909.693 444.03 911.055 440.68 911.872C429.443 914.61 417.894 910.72 408.329 904.852C389.188 893.108 376.774 871.821 371.573 850.354Z" fill="#53AA53"/>
<path d="M321.913 588.707C322.016 587.481 321.887 585.28 322.72 584.446C325.534 585.315 328.162 587.221 330.769 588.609C336.986 591.917 343.217 595.324 349.638 598.22C352.93 599.705 367.315 604.97 368.952 606.556C367.104 609.855 364.866 612.98 362.46 615.895C357.724 621.633 350.801 628.509 342.974 629.077C339.411 629.336 336.123 627.866 333.531 625.487C324.627 617.315 322.593 600.018 321.913 588.707Z" fill="#BBDC7D"/>
<path d="M166.436 872.943C176.069 871.6 188.884 872.767 198.454 874.682C205.435 883.321 212.699 890.656 221.219 897.776C214.775 901.86 194.649 901.283 186.289 901.664C183.213 901.804 179.763 901.663 176.815 902.618C165.337 901.087 149.515 895.109 138.28 895.892C136.838 896.35 135.033 895.434 133.729 894.851C136.647 893.914 140.101 893.93 143.161 893.515C149.387 892.67 172.491 890.592 176.598 887.726C178.13 886.657 178.947 885.301 179.123 883.412C179.469 879.701 176.531 875.932 174.41 873.137C171.738 873.168 169.103 873.084 166.436 872.943Z" fill="#37BC83"/>
<path d="M584.594 896.872C585.111 896.962 585.168 896.982 585.777 897.029C608.556 898.758 628.302 879.295 641.669 863.004C645.439 858.41 648.516 852.539 652.936 848.623C653.043 848.528 653.155 848.437 653.264 848.344C650.609 870.015 637.987 889.102 620.941 902.42C611.773 909.583 600.609 914.48 588.775 912.898C584.071 912.269 579.675 910.683 575.439 908.58C578.775 904.861 581.717 900.951 584.594 896.872Z" fill="#53AA53"/>
<path d="M585.464 60.7153C627.839 73.3522 662.736 93.7786 690.412 128.778C687.87 130.13 685.277 131.432 682.79 132.881C674.073 121.521 656.003 106.332 644.2 98.5366L643.471 98.6324C640.65 95.8783 635.988 93.6655 632.522 91.7686C616.018 82.7382 599.69 76.0134 581.68 70.6908C582.939 67.3809 584.339 64.0696 585.464 60.7153Z" fill="#BBDC7D"/>
<path d="M339.748 138.835C350.225 145.305 361.343 150.669 371.828 157.072C351.651 164.1 337.831 175.221 321.91 188.807C317.138 187.273 312.004 185.117 307.05 184.435C310.002 182.195 316.852 168.76 319.385 164.842C325.326 155.65 332.76 147.246 339.748 138.835Z" fill="#84C462"/>
<path d="M922.026 841.276C926 843.386 929.704 845.813 933.45 848.293C920.721 858.483 906.447 866.574 891.941 873.934C867.472 866.447 853.008 863.484 827.381 869.718C832.591 863.759 836.639 856.691 840.815 849.987C861.793 856.638 883.115 863.123 904.314 852.93C904.818 852.688 905.297 852.397 905.782 852.119L905.906 851.688C911.359 848.174 917.105 845.628 922.026 841.276Z" fill="#37BC83"/>
<path d="M683.758 134.591C693.114 146.883 705.021 161.289 711.136 175.5C707.15 178.81 703.72 182.686 700.205 186.477C685.752 173.113 669.896 161.788 650.878 155.972C662.094 149.264 672.681 141.532 683.758 134.591Z" fill="#84C462"/>
<path d="M229.273 501.804C231.964 498.569 235.173 494.039 238.566 491.59L239.237 492.038C239.207 493.584 239.267 494.945 239.892 496.381C242.784 503.031 247.618 509.442 251.459 515.622C258.945 527.664 265.331 540.483 275.165 550.906C275.807 551.595 276.481 552.251 277.188 552.874C274.813 561.812 272.282 570.705 269.594 579.554C260.259 567.375 245.649 539.406 239.625 524.963C238.612 522.532 236.56 521.281 235.584 519.152C232.982 513.478 233.663 506.9 229.273 501.804Z" fill="#37BC83"/>
<path d="M109.511 891.311C127.103 882.078 146.247 873.588 166.436 872.943C169.103 873.084 171.738 873.168 174.41 873.137C176.531 875.932 179.469 879.701 179.123 883.412C178.947 885.301 178.13 886.657 176.598 887.726C172.491 890.592 149.387 892.67 143.161 893.515C140.101 893.93 136.647 893.914 133.729 894.851C135.033 895.434 136.838 896.35 138.28 895.892C147.4 898.03 156.669 899.817 165.736 902.141C162.926 905.176 151.749 909.094 147.473 910.131C140.461 907.514 113.545 895.95 109.511 891.311Z" fill="#54D197"/>
<path d="M380.061 931.627C386.654 931.048 393.227 932.062 398.732 935.97C404.506 940.069 407.83 946.892 409.018 953.745C409.921 958.956 409.405 964.882 406.128 969.229C404.486 971.408 402.187 972.933 399.448 973.256C396.72 973.578 393.766 972.785 391.675 970.982C387.373 967.273 386.794 961.027 386.283 955.755C385.372 951.634 384.047 947.799 382.391 943.922C381.652 950.42 383.286 958.816 379.953 964.734C378.849 966.696 377.038 968.257 374.824 968.798C372.3 969.416 369.416 969.025 367.21 967.635C364.471 965.909 362.944 962.854 362.22 959.789C360.714 953.417 362.393 945.888 365.974 940.471C369.485 935.16 374.069 932.949 380.061 931.627Z" fill="#DCA534"/>
<path d="M637.124 931.134C641.241 930.786 645.401 931.32 649.202 932.985C654.717 935.402 658.536 939.908 660.495 945.552C662.495 951.315 662.978 958.667 660.168 964.208C658.809 966.888 656.585 969.362 653.632 970.257C651.702 970.842 649.7 970.599 647.949 969.597C638.837 964.382 643.989 953.899 641.906 946.245L641.308 945.954L640.446 946.653C637.384 953.137 638.371 961.02 635.033 967.113C633.564 969.794 630.729 972.588 627.679 973.311C625.551 973.815 623.409 973.319 621.567 972.185C618.525 970.311 616.643 966.994 615.868 963.575C614.251 956.438 615.828 946.769 619.995 940.72C624.036 934.853 630.413 932.381 637.124 931.134Z" fill="#DCA534"/>
<path d="M176.003 750.57C183.236 749.269 190.596 747.637 197.933 747.168C194.774 784.49 193.33 831.534 202.101 868.051C196.512 859.634 191.71 850.387 188.402 840.828C179.619 815.446 176.779 777.522 176.003 750.57Z" fill="#54D197"/>
<path d="M435.211 877.324C435.467 877.42 435.726 877.507 435.977 877.611C437.477 878.236 447.684 889.804 450.241 892.007C451.023 892.694 451.816 893.367 452.62 894.028C453.424 894.688 454.239 895.335 455.064 895.968C455.89 896.601 456.726 897.221 457.572 897.826C458.419 898.431 459.275 899.022 460.141 899.599C461.007 900.176 461.882 900.738 462.767 901.286C463.652 901.834 464.545 902.367 465.447 902.885C466.35 903.402 467.261 903.905 468.18 904.393C469.099 904.881 470.026 905.353 470.961 905.81C471.896 906.267 472.838 906.708 473.787 907.133C474.737 907.558 475.693 907.968 476.656 908.362C477.619 908.755 478.589 909.133 479.565 909.494C480.54 909.855 481.522 910.2 482.509 910.529C483.496 910.858 484.489 911.17 485.487 911.466C486.484 911.761 487.486 912.04 488.493 912.303C489.5 912.565 490.511 912.81 491.526 913.039C492.541 913.268 493.56 913.479 494.582 913.674C495.604 913.869 496.629 914.046 497.657 914.207C498.685 914.368 499.716 914.511 500.749 914.638C501.782 914.764 502.816 914.873 503.853 914.965C504.889 915.057 505.927 915.132 506.966 915.189C508.005 915.246 509.044 915.286 510.084 915.309C511.125 915.332 512.165 915.337 513.205 915.326C514.246 915.314 515.286 915.285 516.325 915.238C517.364 915.191 518.403 915.128 519.44 915.047C520.478 914.966 521.514 914.867 522.548 914.752C523.582 914.637 524.614 914.504 525.643 914.354C526.673 914.204 527.7 914.037 528.724 913.853C529.748 913.669 530.769 913.468 531.786 913.25C532.803 913.032 533.817 912.797 534.827 912.545C535.836 912.293 536.841 912.025 537.842 911.74C538.843 911.455 539.838 911.153 540.829 910.834C541.82 910.516 542.805 910.181 543.784 909.83C556.647 905.337 567.66 898.587 577.658 889.363C580.606 886.644 584.436 881.786 587.905 880.133C581.068 898.532 557.504 918.42 540.526 927.171C526.621 934.338 512.407 936.913 497.311 932.036C471.665 923.749 447.421 901.16 435.211 877.324Z" fill="#53AA53"/>
<path d="M814.274 784.66C814.85 784.533 815.422 784.39 815.989 784.229C829.237 780.422 834.731 764.62 840.687 753.706L840.786 754.813L843.148 755.241L843.286 754.875C845.769 760.096 852.624 763.267 857.862 765.069C858.762 765.378 859.59 765.604 860.522 765.774C858.663 778.332 855.943 790.701 852.361 802.88C842.182 806.81 842.182 832.183 819.356 834.39C817.419 817.815 816.639 801.217 814.274 784.66Z" fill="#37BC83"/>
<path d="M840.786 754.813L843.148 755.241C841.651 765.911 840.106 777.416 835.414 787.191C837.681 776.475 839.669 765.715 840.786 754.813Z" fill="black"/>
<path d="M830.516 875.445C861.622 867.151 888.051 879.154 915.026 893.299C911.203 896.906 906.094 899.241 901.489 901.687C883.905 911.03 862.409 921.053 842.103 920.559C836.465 920.421 830.207 919.246 826.273 914.861C824.365 912.734 823.375 910.225 822.932 907.419C840.731 908.067 860.345 905.073 877.239 899.762C879.919 898.92 883.14 898.236 885.456 896.672L884.263 896.569C878.911 895.678 873.409 896.086 867.995 896.053C859.629 896.002 849.921 895.376 841.788 893.358C837.537 892.304 832.79 890.321 830.551 886.304C828.415 882.474 829.429 879.371 830.516 875.445Z" fill="#54D197"/>
<path d="M644.2 98.5366C656.003 106.332 674.073 121.521 682.79 132.881C671.128 140.177 660.075 148.259 647.981 154.873C625.163 150.688 614.146 149.412 590.878 153.506C599.545 143.235 608.606 133.583 618.123 124.09C623.058 119.167 641.842 102.774 644.2 98.5366Z" fill="#84C462"/>
<path d="M379.746 99.0938C398.137 118.614 416.963 138.121 437.122 155.834C414.858 150.937 398.25 150.184 375.823 155.877C363.721 150.417 352.545 142.703 340.434 137.403C351.762 122.373 365.362 111.007 379.746 99.0938Z" fill="#84C462"/>
<path d="M215.628 783.864C226.923 835.138 250.673 882.153 289.291 918.281C287.817 918.636 286.105 917.978 284.632 917.621C264.459 913.753 245.774 906.902 228.985 894.788C224.924 891.858 220.473 888.573 217.621 884.381C215.045 880.593 214.159 875.463 213.328 871.036C208.646 846.083 210.676 808.771 215.628 783.864Z" fill="#53AA53"/>
<path d="M375.953 607.94C380.509 608.934 384.951 611.125 389.356 612.669C398.755 615.966 408.263 619.256 417.859 621.94C425.255 623.983 432.68 625.914 440.133 627.735C444.633 628.804 450.879 629.312 454.922 631.495C450.577 640.015 446.199 648.325 440.554 656.088C434.543 664.356 424.317 676.053 413.489 677.479C408.771 678.101 404.427 675.999 400.839 673.112C384.058 659.608 377.894 628.563 375.953 607.94Z" fill="#BBDC7D"/>
<path d="M512.067 145.379C512.271 147.325 512.499 149.267 512.585 151.222C522.971 150.725 533.363 150.49 543.76 150.517C541.027 157.762 538.25 165.079 536.432 172.618C540.511 166.004 542.965 158.265 545.706 151.024C557.444 151.431 570.219 152.298 581.441 155.899C550.609 167.836 532.511 179.921 510.661 205.124C498.253 187.528 478.617 173.007 459.032 164.225C452.382 161.243 444.461 159.115 438.98 154.238C452.479 153.517 465.906 152.995 479.424 152.928C482.303 159.796 485.017 166.641 488.761 173.097C486.44 166.366 483.627 159.725 481.494 152.948C491.121 152.221 500.857 152.671 510.518 151.954C510.622 161.788 511.1 171.525 511.753 181.333C513.364 171.912 512.018 155.576 512.067 145.379Z" fill="#53AA53"/>
<path d="M569.571 632.464C573.17 630.935 578.096 630.41 581.992 629.483C590.551 627.448 599.034 625.358 607.452 622.784C615.117 620.446 622.757 618.027 630.372 615.527C636.317 613.521 643.573 610.012 649.73 609.383C648.272 630.771 641.401 657.38 624.519 672.021C620.229 675.742 614.885 678.289 609.088 677.716C600.023 676.82 592.125 668.748 586.798 661.956C579.706 652.912 574.38 642.849 569.571 632.464Z" fill="#BBDC7D"/>
<path d="M92.1589 849.613C109.33 841.379 125.7 830.455 143.578 823.907C152.445 820.66 161.393 818.781 170.673 817.261L175.37 828.638C177.486 833.433 179.572 838.242 181.627 843.064C171.75 840.75 155.487 836.153 145.822 839.441C147.246 839.952 148.594 840.212 150.087 840.446C161.476 841.718 171.964 844.3 182.966 847.385C187.104 853.739 190.642 860.636 194.394 867.233C170.688 864.609 152.625 866.437 129.882 873.862C126.445 872.352 123.072 870.709 119.764 868.934C116.455 867.159 113.222 865.256 110.064 863.225C106.906 861.195 103.832 859.044 100.843 856.772C97.8544 854.499 94.9597 852.113 92.1589 849.613Z" fill="url(#paint0_linear_1_850)"/>
<path d="M177.477 851.517C177.995 851.659 177.657 851.531 178.378 852.12C177.863 852.964 176.797 853.242 175.919 853.667C163.529 859.667 138.154 855.25 124.541 852.713C124.14 852.713 123.365 852.437 122.964 852.332C126.028 851.709 130.244 852.394 133.398 852.703C147.639 854.098 163.928 857.767 177.477 851.517Z" fill="black"/>
<path d="M175.37 828.638C177.486 833.433 179.572 838.242 181.627 843.064C171.75 840.75 155.487 836.153 145.822 839.441C147.246 839.952 148.594 840.212 150.087 840.446C146.297 841.724 139.032 843.601 135.122 842.592C134.201 842.354 134.518 842.548 134.041 841.706C136.409 836.823 171.77 832.143 175.37 828.638Z" fill="#37BC83"/>
<path d="M806.793 785.903C808.51 787.687 808.817 795.704 809.134 798.27C810.748 811.352 812.36 824.464 812.819 837.648C813.257 850.251 812.658 862.828 812.423 875.427C788.978 902.009 757.928 916.868 725.682 929.927L720.196 932.278C758.34 898.467 799.499 837.067 806.793 785.903Z" fill="#53AA53"/>
<path d="M915.026 893.299L918.687 895.571C897.455 921.722 842.144 940.294 809.063 943.715C803.572 944.282 798.068 944.67 792.551 944.877C787.034 945.084 781.517 945.112 775.998 944.959C770.479 944.806 764.972 944.474 759.475 943.961C753.978 943.449 748.504 942.758 743.052 941.888C736.023 940.73 729.087 939.008 722.115 937.553C738.884 931.747 755.007 924.974 770.696 916.66C784.204 925.62 798.113 930.794 813.978 933.685C816.573 934.158 820.439 935.143 822.988 934.586C823.14 934.552 823.284 934.489 823.431 934.441L823.306 933.896C818.439 932.469 813.252 931.843 808.31 930.576C795.499 927.29 783.586 922.297 771.999 915.956C778.402 912.112 784.533 907.903 790.71 903.711C801.615 906.657 811.847 906.419 822.932 907.419C823.375 910.225 824.365 912.734 826.273 914.861C830.207 919.246 836.465 920.421 842.103 920.559C862.409 921.053 883.905 911.03 901.489 901.687C906.094 899.241 911.203 896.906 915.026 893.299Z" fill="#53AA53"/>
<path d="M440.019 72.0302C446.906 70.4904 453.676 68.6632 460.626 67.3793C474.695 64.7802 488.944 63.6414 503.218 63.0237C507.939 92.2371 510.672 122.348 510.518 151.954C500.857 152.671 491.121 152.221 481.494 152.948C468.511 125.524 455.787 98.0284 440.019 72.0302Z" fill="#84C462"/>
<path d="M437.826 72.1775C452.804 98.596 467.195 125.09 479.424 152.928C465.906 152.995 452.479 153.517 438.98 154.238C431.155 147.713 423.823 140.47 416.468 133.42C404.555 122.144 392.902 110.605 381.509 98.8021C401.123 87.4104 416.434 79.9818 437.826 72.1775Z" fill="#84C462"/>
<path d="M545.706 151.024C556.888 123.873 569.768 97.5166 581.68 70.6909C599.69 76.0135 616.018 82.7383 632.522 91.7687C635.988 93.6656 640.65 95.8784 643.471 98.6325C636.073 104.381 629.235 110.995 622.331 117.328C609.42 129.172 596.382 141.165 585.409 154.877C584.096 155.217 582.766 155.621 581.441 155.899C570.219 152.298 557.444 151.431 545.706 151.024Z" fill="#84C462"/>
<path d="M505.781 63.108C522.13 62.9194 537.755 63.4495 553.967 65.7848C562.439 67.0052 570.878 69.1691 579.351 70.1451C567.249 96.8739 554.672 123.265 543.76 150.517C533.363 150.49 522.971 150.725 512.585 151.222C512.499 149.267 512.271 147.325 512.067 145.379C511.989 118.201 510.617 89.8649 505.781 63.108Z" fill="#84C462"/>
<path d="M103.242 894.576L109.511 891.311C113.545 895.95 140.461 907.514 147.473 910.131C151.749 909.094 162.926 905.176 165.736 902.141C179.216 904.91 192.392 909.125 206.004 911.282C213.882 912.542 221.809 913.258 229.786 913.43C234.8 913.566 240.022 913.263 244.994 913.907C254.26 915.107 265.223 920.502 274.808 922.797C282.064 924.534 290.35 923.715 297.27 925.972C301.58 927.378 306.056 931.217 310.045 933.534C285.194 940.031 261.348 944.381 235.583 944.593C195.557 944.922 152.976 933.755 120.484 909.772C114.295 905.204 108.714 899.962 103.242 894.576Z" fill="#53AA53"/>
<path d="M356.128 948.933C310.309 933.879 272.774 897.981 249.739 856.379C248.139 853.514 246.594 850.62 245.103 847.697C243.613 844.773 242.179 841.822 240.8 838.844C239.422 835.866 238.101 832.863 236.837 829.835C235.573 826.807 234.367 823.756 233.218 820.682C232.07 817.608 230.981 814.513 229.95 811.398C228.919 808.282 227.948 805.148 227.037 801.996C226.125 798.844 225.273 795.676 224.482 792.491C223.691 789.306 222.961 786.108 222.291 782.895C221.104 777.456 219.362 771.479 219.444 765.883C219.56 758.012 223.825 746.623 226.057 738.833C226.638 742.56 227.372 746.256 228.257 749.922C229.143 753.589 230.178 757.213 231.361 760.794C232.545 764.375 233.874 767.901 235.348 771.373C236.822 774.845 238.436 778.25 240.19 781.589C237.933 785.763 241.608 796.715 242.888 800.991C246.05 811.553 251.004 821.398 256.326 831.016C257.687 833.466 259.091 835.891 260.538 838.292C261.985 840.692 263.475 843.065 265.007 845.412C266.539 847.759 268.112 850.078 269.727 852.369C271.342 854.66 272.997 856.921 274.692 859.153C276.387 861.385 278.122 863.586 279.896 865.756C281.669 867.926 283.481 870.064 285.331 872.169C287.181 874.274 289.068 876.346 290.992 878.385C292.916 880.423 294.876 882.426 296.871 884.394C298.866 886.362 300.896 888.294 302.961 890.19C305.025 892.086 307.122 893.945 309.253 895.766C311.383 897.587 313.545 899.369 315.74 901.113C317.934 902.857 320.158 904.561 322.413 906.226C324.668 907.891 326.952 909.514 329.265 911.097C331.578 912.68 333.918 914.222 336.285 915.722C338.653 917.221 341.047 918.678 343.467 920.093C345.886 921.507 348.33 922.878 350.799 924.205C355.696 926.831 361.078 929.828 366.501 931.142C360.883 936.354 358.153 941.602 356.128 948.933Z" fill="#84C462"/>
<path d="M463.143 634.403C464.624 633.789 494.773 637.809 498.885 638.019C511.905 638.683 524.871 637.774 537.787 636.124C545.63 635.122 554.055 633.186 561.955 633.472C554.662 657.402 537.588 700.682 514.764 712.748C514.271 713.008 513.767 713.246 513.264 713.487C497.979 709 489.435 695.589 482.158 682.3C480.115 678.51 478.185 674.664 476.366 670.762C474.547 666.859 472.844 662.907 471.255 658.906C469.666 654.904 468.195 650.859 466.842 646.772C465.489 642.685 464.256 638.562 463.143 634.403Z" fill="#BBDC7D"/>
<path d="M772.106 791.771C776.114 791.126 778.391 789.707 780.837 786.435C789.45 774.913 794.069 749.289 796.941 735.21C798.894 746.306 803.393 758.571 803.347 769.775C803.321 776.154 801.643 782.904 800.193 789.111C792.266 823.046 775.522 854.713 755.662 883.14C743.769 900.164 729.548 915.178 714.033 928.916C710.172 932.336 706.546 936.05 701.993 938.554C691.84 944.137 679.146 947.214 668.09 950.788C666.478 941.755 663.315 934.433 655.495 929.034C654.63 928.449 653.746 927.896 652.842 927.375C658.421 924.34 665.312 922.867 671.224 920.405C673.269 919.54 675.293 918.627 677.295 917.667C679.297 916.707 681.275 915.7 683.23 914.647C685.185 913.594 687.115 912.496 689.018 911.352C690.921 910.209 692.797 909.021 694.644 907.79C696.492 906.558 698.31 905.284 700.098 903.967C701.885 902.65 703.641 901.292 705.366 899.893C707.09 898.494 708.78 897.055 710.437 895.577C712.094 894.098 713.715 892.582 715.3 891.027C738.058 868.912 756.248 840.376 767.175 810.602C769.266 804.903 772.02 797.869 772.106 791.771Z" fill="#84C462"/>
<path d="M511.121 215.636C515.68 210.924 519.044 204.831 523.448 199.904C544.217 176.666 578.973 158.63 610.192 156.916C611.097 156.87 612.003 156.835 612.909 156.811C613.815 156.787 614.721 156.774 615.627 156.773C616.533 156.771 617.439 156.781 618.346 156.802C619.252 156.823 620.157 156.854 621.062 156.897C621.967 156.94 622.872 156.995 623.776 157.06C624.68 157.126 625.583 157.203 626.485 157.29C627.387 157.378 628.288 157.477 629.188 157.586C630.087 157.696 630.985 157.817 631.882 157.949C632.779 158.081 633.673 158.224 634.566 158.379C635.459 158.533 636.351 158.698 637.24 158.874C638.129 159.05 639.015 159.237 639.9 159.435C640.784 159.633 641.666 159.842 642.545 160.062C643.424 160.281 644.301 160.512 645.174 160.753C646.048 160.994 646.919 161.246 647.786 161.509C648.653 161.772 649.517 162.045 650.378 162.329C651.239 162.614 652.096 162.908 652.949 163.213C653.802 163.518 654.652 163.834 655.497 164.16C656.343 164.487 657.184 164.823 658.021 165.17C658.858 165.517 659.691 165.874 660.52 166.241C661.349 166.609 662.172 166.987 662.991 167.374C663.81 167.762 664.625 168.16 665.434 168.568C666.243 168.975 667.048 169.393 667.847 169.821C668.646 170.248 669.439 170.686 670.228 171.133C671.016 171.58 671.798 172.037 672.575 172.504C673.352 172.97 674.124 173.446 674.889 173.932C675.654 174.417 676.413 174.912 677.166 175.416C677.919 175.921 678.666 176.434 679.406 176.957C680.147 177.48 680.881 178.011 681.608 178.552C682.335 179.093 683.056 179.642 683.769 180.201C684.483 180.76 685.19 181.327 685.89 181.902C686.589 182.478 687.282 183.063 687.967 183.656C688.652 184.249 689.33 184.85 690.001 185.46C710.095 203.467 730.18 231.597 731.624 259.241C734.921 261.97 738.917 264.027 742.543 266.31C749.498 270.691 755.173 275.374 760.689 281.462C760.684 281.704 760.672 281.947 760.674 282.19C760.725 287.288 766.066 291.123 763.914 297.476C763.245 298.043 763.355 298.197 762.622 298.187C758.507 298.13 750.161 290.376 747.658 287.281C747.56 287.16 747.487 287.021 747.402 286.891C741.501 279.895 731.026 276.441 726.103 269.01C721.911 262.684 719.365 247.522 715.92 239.403C700.486 203.037 666.877 174.39 626.749 170.799C594.522 167.915 556.787 187.17 531.171 205.279C525.889 209.013 517.134 217.885 511.229 219.374C508.915 219.958 496.328 209.021 493.369 206.831C484.323 200.136 473.933 194.291 464.024 188.938C419.503 164.885 380.716 162.331 340.498 196.232C324.888 209.39 314.174 226.482 306.822 245.352C304.697 250.806 303.093 257.916 299.665 262.656C296.498 267.033 288.305 270.516 283.858 274.091C277.893 278.887 272.508 284.126 267.207 289.637C264.748 292.193 260.344 297.55 256.612 297.707L255.257 296.947C255.618 295.167 255.62 293.319 255.699 291.507C262.112 280.471 278.627 265.539 289.994 259.615C298.169 230.71 313.368 204.219 336.34 184.506C356.52 167.19 383.865 155.778 410.749 157.936C441.396 160.397 473.102 174.849 495.029 196.428C500.955 202.261 505.363 208.972 510.741 215.203L511.121 215.636Z" fill="#DAEEAE"/>
<path d="M703.018 561.413C701.177 569.012 702.729 580.271 700.715 586.855C695.43 588.229 689.733 592.56 684.693 594.925C674.884 599.446 664.929 603.616 654.827 607.437C653.508 605.406 652.259 603.438 650.559 601.693C650.248 604.254 649.929 606.809 649.73 609.383C643.573 610.012 636.317 613.521 630.372 615.527C622.757 618.027 615.117 620.446 607.452 622.784C599.034 625.358 590.551 627.448 581.992 629.483C578.096 630.41 573.17 630.935 569.571 632.464C568.496 630.27 567.652 628.086 565.741 626.489L564.493 626.137C562.401 627.758 562.371 630.991 561.955 633.472C554.055 633.186 545.63 635.122 537.787 636.124C524.871 637.774 511.905 638.683 498.885 638.019C494.773 637.809 464.624 633.789 463.143 634.403C462.526 631.763 462.094 627.554 459.987 625.725L458.815 625.831C456.897 627.255 456.017 629.427 454.922 631.495C450.879 629.312 444.633 628.804 440.133 627.735C432.68 625.914 425.255 623.983 417.859 621.94C408.263 619.256 398.755 615.966 389.356 612.669C384.951 611.125 380.509 608.934 375.953 607.94C375.889 605.888 375.961 604.006 375.001 602.131C374.352 601.689 374.148 601.277 373.32 601.47C370.974 602.017 369.989 604.628 368.952 606.556C367.315 604.97 352.93 599.705 349.638 598.22C343.217 595.324 336.986 591.917 330.769 588.609C328.162 587.221 325.534 585.315 322.72 584.446C321.887 585.28 322.016 587.481 321.913 588.707C320.449 580.851 321.484 570.138 323.568 562.421C348.802 575.249 374.563 585.867 401.751 593.86C404.856 594.793 407.972 595.687 411.099 596.542C414.226 597.397 417.363 598.213 420.511 598.99C423.658 599.767 426.815 600.504 429.981 601.202C433.146 601.901 436.32 602.559 439.503 603.178C442.685 603.797 445.874 604.376 449.071 604.915C452.268 605.454 455.471 605.954 458.68 606.413C461.889 606.873 465.104 607.292 468.324 607.671C471.543 608.05 474.767 608.389 477.995 608.688C481.224 608.987 484.455 609.246 487.689 609.464C490.924 609.682 494.161 609.86 497.4 609.997C500.639 610.134 503.879 610.231 507.12 610.288C510.361 610.345 513.603 610.361 516.845 610.337C520.087 610.312 523.328 610.247 526.568 610.142C529.809 610.037 533.047 609.892 536.283 609.706C539.52 609.52 542.754 609.294 545.985 609.027C549.216 608.76 552.443 608.453 555.666 608.106C558.889 607.759 562.108 607.371 565.321 606.944C568.535 606.517 571.743 606.049 574.945 605.542C578.147 605.035 581.342 604.487 584.53 603.9C587.719 603.313 590.899 602.686 594.072 602.019C597.245 601.352 600.408 600.646 603.563 599.901C606.718 599.156 609.864 598.371 612.999 597.547C616.134 596.723 619.259 595.86 622.373 594.958C625.487 594.056 628.589 593.115 631.68 592.136C634.77 591.157 637.848 590.139 640.913 589.083C643.978 588.027 647.029 586.933 650.067 585.801C653.105 584.668 656.128 583.498 659.137 582.291C662.146 581.083 665.139 579.838 668.116 578.556C671.093 577.273 674.054 575.954 676.999 574.598C679.944 573.242 682.871 571.849 685.781 570.42C688.691 568.991 691.583 567.525 694.456 566.024C697.329 564.523 700.183 562.986 703.018 561.413Z" fill="#84C462"/>
<path d="M278.028 568.917C280.84 575.444 284.6 581.891 291.552 584.716C295.69 586.397 300.214 586.02 304.25 584.239C309.13 582.086 312.997 578.215 316.09 573.956C316.064 591.205 316.5 617.596 329.758 630.543C333.245 633.949 337.62 635.716 342.506 635.563C351.285 635.287 358.744 629.607 364.364 623.338C366.654 620.785 368.921 618.035 370.8 615.161C373.824 636.671 379.429 665.01 398.005 678.867C403.083 682.655 409.108 684.815 415.48 683.784C428.174 681.728 439.586 668.79 446.457 658.777C450.855 652.367 454.59 645.48 458.255 638.631C465.649 663.504 479.145 703.212 502.844 716.263C506.001 718.001 509.175 719.042 512.675 719.866C531.087 714.151 541.28 696.14 549.76 680.023C553.144 673.506 556.216 666.844 558.977 660.039C561.738 653.234 564.175 646.316 566.288 639.283C572.947 654.378 585.951 676.487 602.116 682.547C608.682 685.008 615.51 684.485 621.792 681.464C636.345 674.466 645.546 656.643 650.369 642.072C651.566 638.369 652.571 634.615 653.383 630.81C654.195 627.005 654.81 623.168 655.229 619.299C660.501 626.451 667.653 634.27 676.896 635.74C677.199 635.791 677.503 635.835 677.808 635.87C678.113 635.906 678.419 635.934 678.726 635.955C679.033 635.976 679.339 635.989 679.646 635.994C679.953 635.999 680.261 635.996 680.568 635.986C680.875 635.976 681.181 635.958 681.488 635.932C681.794 635.907 682.099 635.873 682.404 635.832C682.708 635.791 683.011 635.743 683.313 635.687C683.616 635.631 683.916 635.567 684.215 635.496C684.514 635.425 684.811 635.346 685.106 635.26C685.401 635.174 685.693 635.081 685.983 634.98C686.274 634.879 686.561 634.771 686.846 634.656C687.131 634.541 687.412 634.418 687.691 634.289C687.97 634.16 688.245 634.023 688.517 633.88C688.789 633.737 689.057 633.588 689.322 633.431C689.586 633.274 689.846 633.111 690.103 632.942C690.359 632.772 690.611 632.596 690.858 632.414C702.011 624.099 705.37 603.754 706.902 590.99C707.533 585.34 707.963 579.675 708.192 573.995C712.317 578.649 716.619 582.682 723.184 583.194C729.728 583.705 735.802 580.492 740.503 576.191C741.576 575.21 742.614 574.195 743.619 573.144C747.2 586.162 750.561 599.232 754.783 612.062C759.48 626.332 765.088 640.321 769.585 654.649C768.05 661.748 766.59 671.197 760.045 675.572C758.663 676.496 757.172 677.1 755.614 677.649C755.304 670.118 752.916 662.002 751.329 654.618C747.331 636.02 742.377 617.268 739.642 598.446C736.247 600.462 732.386 601.925 728.428 602.27C722.806 602.759 718.617 600.817 714.343 597.343C712.332 609.88 709.697 621.721 703.563 632.998C699.74 640.026 694.501 646.898 686.422 649.128C678.042 651.441 670.582 648.395 663.428 644.337C656.578 660.829 649.639 676.918 638.296 690.931C632.96 697.524 626.302 704.093 617.376 704.84C601.209 706.192 583.902 691.451 572.394 681.785C561.516 700.977 546.31 721.683 526.374 732.167C518.905 736.094 511.095 737.026 503.023 734.507C480.826 727.581 462.74 700.973 452.379 681.122C444.057 687.715 435.899 694.784 425.55 697.908C414.672 701.192 403.963 700.171 393.953 694.724C375.524 684.696 366.348 664.957 360.576 645.766C356.211 648.269 351.943 650.548 346.95 651.5C340.173 652.793 333.607 651.219 327.972 647.282C315.972 638.897 308.632 615.981 306.234 601.896C300.006 603.412 294.462 604.2 288.05 604.175C280.274 617.669 262.992 662.765 261.946 677.256C255.435 673.348 253.841 666.249 251.937 659.402C261.189 629.388 270.811 599.503 278.028 568.917Z" fill="#53AA53"/>
<path d="M773.558 666.428C781.225 684.704 787.189 703.576 792.712 722.587C790.841 729.089 789.949 736.104 788.612 742.752C787.615 747.776 786.384 752.742 784.919 757.65C783.455 762.558 781.764 767.387 779.845 772.136C778.199 768.227 778.922 756.726 777.925 751.407C774.667 734.037 769.918 717.014 765.677 699.876C759.204 701.064 752.893 701.572 746.375 700.373C744.075 716.204 737.108 731.046 724.002 740.706C717.335 745.62 709.535 748.617 701.143 747.352C698.044 746.885 695.147 745.938 692.324 744.573C688.814 758.727 683.616 772.739 670.444 780.71C670.029 780.965 669.607 781.21 669.179 781.445C668.752 781.68 668.319 781.904 667.88 782.117C667.441 782.33 666.998 782.533 666.549 782.724C666.1 782.915 665.646 783.096 665.189 783.265C664.732 783.434 664.27 783.591 663.805 783.738C663.34 783.884 662.871 784.019 662.399 784.142C661.927 784.265 661.452 784.377 660.975 784.477C660.497 784.576 660.017 784.664 659.536 784.74C659.054 784.816 658.57 784.88 658.085 784.933C657.6 784.985 657.114 785.025 656.627 785.054C656.14 785.082 655.653 785.098 655.165 785.102C654.678 785.107 654.19 785.099 653.702 785.079C653.215 785.059 652.728 785.027 652.243 784.984C651.757 784.94 651.272 784.884 650.789 784.816C650.306 784.749 649.825 784.669 649.346 784.578C648.867 784.486 648.39 784.383 647.916 784.268C644.41 783.388 641.252 781.815 638.129 780.029C632.824 795.383 623.741 816.869 608.19 824.377C601.943 827.393 595.336 827.506 588.856 825.165C581.888 822.647 575.344 817.738 570.177 812.507C559.359 833.253 545.13 856.871 521.321 864.365C511.815 867.357 503.053 865.185 494.52 860.647C472.219 848.786 464.329 829.758 455.463 807.646C448.368 816.113 439.621 826.644 427.831 827.897C421.365 828.585 415.533 825.555 410.731 821.496C397.658 810.444 388.739 793.522 383.632 777.387C377.222 782.112 370.451 785.366 362.2 784.148C351.76 782.607 342.461 775.019 336.509 766.629C331.645 759.772 329.023 752.221 326.916 744.156C321.299 747.386 315.453 748.928 309.031 747.161C298.76 744.333 289.778 734.937 284.873 725.794C280.431 717.515 277.905 708.318 276.51 699.066C270.155 700.124 265.027 699.931 258.734 698.618C256.854 708.961 255.047 719.371 254.201 729.858C253.29 741.146 253.282 771.124 258.893 780.215C258.284 781.591 257.487 783.175 256.455 784.276C255.606 785.182 254.507 785.555 253.275 785.343C249.581 784.705 245.254 777.065 243.585 773.945C238.371 764.202 229.706 738.602 230.535 727.425C231.061 720.335 234.582 712.749 236.792 706.029C240.789 693.881 244.854 681.674 248.514 669.423C250.585 673.795 252.785 678.07 256.649 681.166C259.846 683.727 263.682 684.869 267.757 684.361C276.379 683.286 282.697 676.461 287.813 670.075C286.922 678.838 287.531 688.23 288.987 696.899C290.856 708.03 295.686 723.207 305.558 729.869C309.526 732.548 314.089 733.448 318.767 732.4C326.327 730.706 332.744 724.658 336.832 718.304C336.86 721.269 336.942 724.254 337.258 727.204C338.652 740.226 343.402 755.95 354.175 764.348C358.501 767.721 363.666 769.476 369.161 768.715C380.096 767.201 386.234 758.491 392.438 750.377C393.117 753.907 393.925 757.407 394.863 760.878C395.8 764.348 396.865 767.779 398.056 771.171C399.247 774.562 400.561 777.905 402 781.2C403.438 784.495 404.996 787.732 406.673 790.911C411.292 799.491 416.84 808.252 426.662 811.204C427.029 811.127 427.394 811.044 427.757 810.955C441.526 807.529 454.996 789.206 461.767 777.657C463.656 789.611 466.82 801.265 472.099 812.19C478.501 825.437 489.828 842.076 504.559 846.923C510.761 848.964 516.991 848.186 522.759 845.259C545.258 833.846 556.534 804.21 563.822 781.503C565.343 784.024 566.951 786.488 568.645 788.896C574.455 797.034 582.635 805.939 593.08 807.465C598.176 808.209 602.802 806.832 606.876 803.735C621.248 792.812 627.679 767.445 629.713 750.496C632.047 754.159 634.483 757.742 637.397 760.975C642.003 766.086 647.893 769.959 654.971 770.169C661.751 770.37 667.988 767.241 672.868 762.723C684.784 751.694 687.5 735.868 688.211 720.436C688.671 720.934 689.129 721.414 689.621 721.881C694.926 726.915 701.717 730.002 709.148 729.655C716.984 729.29 723.962 725.192 729.076 719.424C738.887 708.356 740.336 693.769 739.385 679.627C741.61 680.987 744.053 682.362 746.524 683.222C751.666 685.01 756.968 685.245 761.918 682.726C768.445 679.404 771.352 673.004 773.558 666.428Z" fill="#53AA53"/>
<path d="M245.409 412.536C247.632 407.907 250.865 403.723 253.845 399.561C254.308 403.206 254.8 406.87 255.617 410.455C257.816 420.099 262.67 431.276 271.495 436.623C275.767 439.212 279.966 439.819 284.757 438.576C288.404 447.907 292.725 456.995 300.086 463.999C305.386 469.042 313.425 474.424 321.014 474.058C325.245 473.853 327.385 472.335 330.185 469.296C335.203 480.032 341.578 489.312 351.354 496.275C358.094 501.075 368.659 506.181 377.147 504.53C381.572 503.67 383.936 501.382 386.414 497.831C393.984 507.093 402.368 514.348 412.948 520.032C420.919 524.314 433.046 528.941 442.13 525.92C446.285 524.539 448.328 522.127 450.245 518.337C465.981 529.839 487.96 537.729 507.413 538.851C527.661 540.018 555.962 531.393 571.249 517.913C571.69 520.824 572.551 522.649 574.886 524.54C578.724 527.648 584 527.699 588.672 527.09C607.163 524.683 626.274 512.131 637.469 497.521C639.261 500.639 641.248 502.968 644.665 504.352C649.592 506.348 655.517 505.022 660.286 503.1C675.09 497.137 687.379 483.114 693.516 468.668C696.035 471.476 698.341 473.678 702.218 474.272C707.709 475.112 713.145 472.166 717.43 469.004C718.231 468.422 719.018 467.821 719.79 467.2C720.562 466.579 721.318 465.939 722.058 465.281C722.799 464.623 723.522 463.947 724.229 463.253C724.936 462.559 725.626 461.848 726.298 461.12C726.97 460.392 727.623 459.648 728.258 458.888C728.893 458.128 729.51 457.353 730.107 456.562C730.704 455.772 731.281 454.967 731.838 454.148C732.395 453.329 732.932 452.497 733.448 451.652C733.965 450.807 734.46 449.949 734.934 449.079C735.408 448.209 735.86 447.328 736.291 446.436C736.722 445.544 737.13 444.642 737.516 443.729C737.902 442.817 738.265 441.896 738.606 440.965C738.947 440.035 739.264 439.097 739.558 438.151C739.853 437.206 740.124 436.253 740.371 435.294C740.618 434.335 740.842 433.37 741.042 432.4C741.241 431.429 741.417 430.455 741.569 429.476C744.297 431.58 746.734 433.162 750.24 433.563C753.762 433.965 757.01 432.64 759.636 430.335C767.601 423.345 769.106 410.909 769.677 400.986C772.119 404.581 774.433 408.256 776.618 412.012C776.487 412.16 776.335 412.293 776.225 412.457C775.377 413.728 772.874 426.79 771.979 429.68C771.342 431.68 770.636 433.656 769.862 435.607C769.088 437.558 768.248 439.481 767.342 441.375C766.436 443.268 765.466 445.128 764.431 446.955C763.396 448.782 762.3 450.57 761.142 452.321C729.864 499.607 652.646 533.7 600.175 548.814C574.178 556.302 546.169 561.597 519.077 562.24C458.965 563.666 388.506 541.641 336.124 512.649C308.309 497.253 272.477 470.424 257.089 442.133C252.205 433.154 250.266 424.015 246.78 414.596C246.457 413.724 246.147 413.126 245.409 412.536Z" fill="#53AA53"/>
<path d="M240.19 781.589C243.158 785.836 247.249 791.883 252.742 792.809C252.99 792.85 253.239 792.879 253.49 792.895C253.741 792.912 253.992 792.916 254.243 792.907C254.494 792.898 254.744 792.877 254.993 792.844C255.242 792.811 255.489 792.765 255.734 792.707C255.978 792.649 256.219 792.579 256.457 792.497C256.694 792.415 256.927 792.321 257.155 792.216C257.384 792.111 257.606 791.994 257.823 791.867C258.04 791.74 258.249 791.602 258.452 791.454C260.002 790.306 261.175 788.777 262.308 787.238C266.161 808.962 275.321 830.455 293.974 843.536C297.566 846.054 302.131 848.589 306.663 847.823C309.926 847.271 312.182 845.315 313.938 842.613C314.481 841.765 315.01 840.909 315.527 840.044C321.263 860.79 336.992 882.018 355.791 892.759C360.166 895.259 365.598 897.568 370.67 896.028C375.444 894.578 377.804 890.692 380.063 886.604C390.49 901.406 406.167 915.6 424.612 918.834C435.666 920.772 444.627 918.451 454.166 912.864C471.853 927.983 492.519 943.267 517.117 941.271C537.706 939.6 556.724 926.997 571.272 913.115C581.236 919.316 591.388 921.747 603.006 919.07C619.903 915.176 636.471 899.413 645.797 885.414C648.078 889.402 650.429 893.263 655.177 894.567C659.831 895.846 664.599 893.837 668.539 891.451C686.901 880.332 699.599 860.513 708.201 841.349C711.905 844.872 715.55 847.467 720.939 847.381C727.494 847.276 733.056 842.819 737.322 838.231C750.131 824.457 757.806 804.93 762.346 786.858C765.501 789.114 768.306 790.753 772.106 791.771C772.02 797.869 769.266 804.903 767.175 810.602C756.248 840.376 738.058 868.912 715.3 891.027C713.715 892.582 712.094 894.098 710.437 895.577C708.78 897.055 707.09 898.494 705.365 899.893C703.641 901.292 701.885 902.65 700.098 903.967C698.31 905.284 696.492 906.558 694.644 907.79C692.797 909.021 690.921 910.209 689.018 911.352C687.115 912.496 685.185 913.594 683.23 914.647C681.275 915.7 679.297 916.707 677.295 917.667C675.293 918.627 673.269 919.54 671.224 920.405C665.312 922.867 658.421 924.34 652.842 927.375C644.5 924.034 636.665 923.392 628.302 927.11C626.567 927.881 624.841 928.816 623.236 929.824C615.878 927.447 608.725 927.44 601.737 930.988C594.654 934.585 590.54 940.895 587.37 947.891C575.105 949.622 563.01 952.607 550.725 954.108C522.05 957.611 465.512 958.486 438.298 950.095C438.205 949.702 438.107 949.31 438.004 948.92C436.013 941.449 431.831 934.85 424.882 931.083C417.049 926.836 409.264 927.61 401.101 929.932C397.431 928.188 393.685 926.767 389.679 926.026C381.134 924.444 373.648 926.3 366.501 931.142C361.078 929.828 355.696 926.831 350.799 924.205C348.33 922.878 345.886 921.507 343.467 920.093C341.047 918.678 338.653 917.221 336.285 915.722C333.918 914.222 331.578 912.68 329.265 911.097C326.952 909.514 324.668 907.891 322.413 906.226C320.158 904.561 317.934 902.857 315.74 901.113C313.545 899.369 311.383 897.587 309.253 895.766C307.122 893.945 305.025 892.086 302.961 890.19C300.896 888.294 298.866 886.362 296.871 884.394C294.876 882.426 292.916 880.423 290.992 878.385C289.068 876.346 287.181 874.274 285.331 872.169C283.481 870.064 281.669 867.926 279.896 865.756C278.122 863.586 276.387 861.385 274.692 859.153C272.997 856.921 271.342 854.66 269.727 852.369C268.112 850.078 266.539 847.759 265.007 845.412C263.475 843.065 261.985 840.692 260.538 838.292C259.091 835.891 257.687 833.466 256.326 831.016C251.004 821.398 246.05 811.553 242.888 800.991C241.608 796.715 237.933 785.763 240.19 781.589Z" fill="#BBDC7D"/>
<path d="M163.725 659.314C166.179 642.131 169.747 625.182 174.43 608.467C185.969 567.412 202.223 534.821 229.273 501.804C233.663 506.9 232.982 513.478 235.584 519.152C236.56 521.281 238.612 522.532 239.625 524.963C245.649 539.406 260.259 567.375 269.594 579.554C260.532 607.47 252.24 635.718 243.533 663.754C239.177 677.777 234.227 691.634 230.077 705.719C225.43 719.236 221.199 732.883 217.386 746.658C212.298 746.133 204.831 747.572 200.287 746.128C200.88 736.278 201.931 726.477 203.44 716.726C204.408 710.535 206.046 703.885 206.211 697.646L205.213 697.258C204.254 698.204 204.116 698.868 203.705 700.103C202.988 707.019 201.646 713.898 200.675 720.787C199.483 729.552 198.569 738.345 197.933 747.168C190.596 747.637 183.236 749.269 176.003 750.57C175.622 739.027 175.626 727.483 176.014 715.94C176.403 704.397 177.175 692.88 178.33 681.388C178.6 678.972 179.076 676.651 178.321 674.29L177.722 674.201C176.657 676.094 176.559 678.111 176.296 680.228C171.413 724.349 172.876 786.239 182.499 829.882C179.115 823.104 176.797 815.356 174.434 808.162C158.757 760.45 156.849 708.797 163.725 659.314Z" fill="#87DEB7"/>
<path d="M240.58 542.286L241.304 542.935C241.27 543.874 221.875 592.255 219.683 596.083L219.175 595.267C219.927 587.603 235.63 548.134 240.58 542.286Z" fill="black"/>
<path d="M213.174 608.761L213.805 609.4C213.653 614.01 209.278 623.715 207.818 628.774C205.567 636.575 200.292 662.739 197.045 668.251C196.465 667.625 196.402 667.718 196.244 666.748C195.404 661.573 209.763 614.121 213.174 608.761Z" fill="black"/>
<path d="M269.604 349.499C263.456 355.303 260.477 363.064 255.547 369.715C254.077 371.698 253.023 372.418 250.589 372.751C249.464 372.379 248.922 372.289 248.151 371.332C245.487 368.025 245.507 359.499 245.84 355.371C247.531 334.385 259.327 314.933 275.064 301.406C275.372 308.132 251.263 329.063 264.919 342.291C266.552 343.873 268.643 344.809 270.667 345.778C273.062 344.457 275.495 343.184 277.784 341.683C275.275 355.625 270.386 386.284 278.373 398.148C279.201 399.378 280.305 400.415 281.793 400.749C283.332 401.095 284.782 400.69 286.019 399.752C289.084 397.43 290.423 393.184 294.526 392.444C295.739 392.792 296.489 393.043 297.129 394.225C298.598 396.942 298.158 401.447 298.578 404.476C300.242 416.486 305.616 431.025 317.91 435.667C318.587 435.92 319.27 436.158 319.959 436.38C321.502 435.77 323.288 435.181 324.67 434.256C327.537 432.338 330.067 427.441 333.759 427.973C340.902 433.485 339.095 455.47 356.153 465.334C358.023 466.415 360.344 467.887 362.589 467.605C366.457 467.119 370.188 465.997 373.91 464.882C376.166 461.628 373.182 453.594 378.845 453.011C381.374 452.75 383.318 453.994 385.053 455.672C393.685 464.019 403.003 483.15 416.816 482.977C423.933 482.888 429.127 477.026 436.746 477.422C445.688 477.887 455.346 482.057 463.88 484.749C478.707 489.425 497.89 493.973 513.507 493.526C529.264 493.075 545.202 488.65 560.235 484.209C568.063 481.897 576.065 478.848 584.254 478.197C595.021 477.342 603.386 486.711 614.156 480.567C614.981 480.096 615.795 479.616 616.605 479.12C624.735 474.145 637.375 450.732 645.386 452.877C649.449 453.964 651.34 460.131 654.53 462.73C659.747 463.645 663.57 463.793 668.103 460.488C677.657 453.523 686.07 432.78 690.65 429.61C691.762 428.841 692.992 428.629 694.315 428.791C700.916 429.596 706.83 435.823 713.547 431.042C721.806 425.163 726.806 411.745 728.359 402.156C728.908 398.77 727.462 391.796 730.859 389.734C736.299 386.432 746.062 397.992 750.118 387.805C755.864 373.374 745.216 356.671 741.402 343.1C740.993 341.646 739.83 337.75 741.809 337.038C744.683 336.003 748.817 338.912 751.251 340.308C754.039 341.906 758.169 344.879 761.453 343.988C762.722 343.643 763.864 343.016 764.524 341.824C766.46 338.325 764.211 331.939 762.762 328.436C760.386 322.688 752.011 311.411 751.195 308.026C762.009 315.453 768.675 327.433 772.793 339.599C774.895 345.81 778.841 363.636 775.102 369.382C774.48 370.339 773.605 370.907 772.441 370.943C767.273 371.104 754.746 353.358 751.521 349.274C761.408 368.858 766.776 393.459 760.536 415.069C759.418 418.94 756.971 425.247 753.023 426.939C751.728 427.495 750.832 427.534 749.525 426.992C743.951 424.686 736.989 401.21 734.485 394.95C738.335 412.747 738.817 429.879 729.157 445.879C724.7 453.261 715.407 465.671 706.39 467.576C704.531 467.969 702.765 467.683 701.222 466.533C694.264 461.349 696.541 447.476 695.431 439.753L695.319 439.003C693.096 455.299 688.917 468.387 678.352 481.328C672.43 488.582 660.473 498.395 650.651 499.068C648.854 499.191 647.014 498.792 645.761 497.393C641.604 492.75 647.659 473.59 648.624 467.052C643.661 478.663 637.784 488.98 628.834 498.011C618.655 508.28 598.772 520.922 583.907 520.677C582.128 520.648 579.993 520.294 578.838 518.772C577.9 517.537 577.929 516.477 578.177 515.034C578.865 511.02 580.98 506.888 582.465 503.096C584.898 496.884 586.744 490.592 587.649 483.977C579.809 503.114 569.574 514.363 550.561 522.79C523.944 534.587 502.97 535.18 475.846 524.608C457.066 517.287 442.887 505.824 434.73 487.048C435.13 490.184 435.831 493.117 436.885 496.093C438.122 499.588 444.892 512.569 444.309 515.216C443.955 516.821 443.098 518.09 441.667 518.901C437.907 521.033 431.609 519.744 427.587 518.645C400.464 511.235 385.113 488.16 372.079 465.235C374.331 473.955 378.894 482.266 380.771 490.937C381.153 492.699 381.133 494.503 379.916 495.974C378.774 497.355 376.983 497.848 375.265 497.977C366.419 498.642 356.965 493.001 350.582 487.314C337.381 475.553 328.143 456.362 327.074 438.799C325.498 445.787 327.372 463.262 323.343 466.727C321.963 467.913 320.043 467.966 318.353 467.601C310.26 465.854 302.211 457.886 297.79 451.205C289.765 439.079 285.129 419.507 287.955 405.16C285.612 410.849 283.249 417.272 282.852 423.467C282.698 425.861 283.351 428.74 282.72 431.022C282.442 432.026 281.499 432.649 280.544 432.967C279.003 433.481 277.208 432.859 275.839 432.131C269.287 428.649 265.166 420.783 262.909 413.98C255.966 393.045 259.845 368.827 269.604 349.499Z" fill="#84C462"/>
<path d="M787.674 488.211C791.48 493.044 795.227 497.923 798.914 502.848L802.101 507.15C809.484 517.983 816.862 528.873 823.128 540.405C830.036 553.12 835.745 566.59 840.878 580.107C864.115 641.304 867.313 701.192 860.522 765.774C859.59 765.604 858.762 765.378 857.862 765.069C852.624 763.267 845.769 760.096 843.286 754.875L843.148 755.241L840.786 754.813L840.687 753.706C834.731 764.62 829.237 780.422 815.989 784.229C815.422 784.39 814.85 784.533 814.274 784.66L808.727 755.95C802.183 727.892 793.391 700.176 783.814 673.013C777.984 656.477 771.463 640.188 765.648 623.651C760.796 609.852 756.511 595.715 752.39 581.679C751.221 576.015 749.442 570.461 748.258 564.78C746.156 554.691 745.143 544.576 744.386 534.31C761.087 520.937 775.497 505.853 787.674 488.211Z" fill="#87DEB7"/>
<path d="M843.898 728.908L844.374 728.923L844.906 727.987L845.34 727.87L845.955 730.288C845.823 734.343 845.499 738.446 845.041 742.477C844.24 741.379 843.544 740.207 842.824 739.054C843.29 735.678 843.288 732.276 843.898 728.908Z" fill="#000E1A"/>
<path d="M842.824 739.054C843.544 740.207 844.24 741.379 845.041 742.477C844.851 746.652 844.15 750.789 843.286 754.875L843.148 755.241L840.786 754.813L840.687 753.706L841.359 750.149C842.132 746.514 842.417 742.748 842.824 739.054Z" fill="#1F1633"/>
<path d="M794.306 633.654C794.641 633.862 795.038 634.073 795.311 634.371C797.956 637.262 803.934 663.695 803.896 668.431L802.781 667.828C800.808 663.623 794.539 638.477 794.306 633.654Z" fill="black"/>
<path d="M830.417 593.784L831.678 594.763C834.3 601.811 844.11 630.081 842.507 636.827C841.862 636.785 841.713 636.408 841.267 635.967C839.773 630.32 829.931 596.761 830.417 593.784Z" fill="black"/>
<path d="M843.898 728.908C844.497 717.947 844.78 706.977 844.746 696C844.701 690.341 844.038 684.364 844.345 678.746C844.446 676.899 844.696 674.666 845.573 673.034C848.169 687.629 847.515 715.213 845.955 730.288L845.34 727.87L844.906 727.987L844.374 728.923L843.898 728.908Z" fill="black"/>
<path d="M822.77 736.991C822.204 732.065 815.849 692.471 816.295 690.848L816.954 690.518C820.993 694.778 824.273 731.087 824.963 738.284C825.082 741.377 826.353 747.958 825.252 750.574L824.696 750.352C823.306 746.258 823.246 741.284 822.77 736.991Z" fill="black"/>
<path d="M761.416 565.439C760.39 561.061 754.939 552.681 755.774 548.581L756.481 549.465L756.002 549.818L757.044 549.877L756.918 550.251C759.037 554.295 760.743 558.613 762.572 562.797C764.763 568.238 767.151 573.592 769.735 578.858C772.855 585.139 782.727 600.199 783.076 606.254C778.738 604.496 764.828 573.523 762.323 567.64C762.014 566.909 761.711 566.176 761.416 565.439Z" fill="black"/>
<path d="M808.856 605.845C809.047 605.972 809.245 606.089 809.429 606.226C811.241 607.58 812.501 611.432 813.346 613.535C820.102 630.36 824.332 649.738 825.992 667.748L824.594 667.309C821.984 662.605 820.58 646.441 819.08 640.143C817.879 635.223 816.514 630.349 814.985 625.52C813.205 620.067 808.95 611.274 808.856 605.845Z" fill="black"/>
<path d="M822.77 736.991C823.246 741.284 823.306 746.258 824.696 750.352L825.252 750.574C826.353 747.958 825.082 741.377 824.963 738.284C828.156 740.598 830.607 742.538 832.551 746.068C835.524 747.345 838.541 748.551 841.359 750.149L840.687 753.706C834.731 764.62 829.237 780.422 815.989 784.229C815.422 784.39 814.85 784.533 814.274 784.66L808.727 755.95C817.102 753.576 816.863 744.747 821.587 739.169C822.213 738.43 822.439 737.897 822.77 736.991Z" fill="#54D197"/>
<path d="M787.674 488.211C791.48 493.044 795.227 497.923 798.914 502.848L802.101 507.15C800.343 507.344 799.099 507.323 797.944 508.87C796.755 510.462 795.973 512.339 794.823 513.959C793.856 516.497 792.689 518.698 791.193 520.96C792.766 523.297 796.6 527.478 796.499 530.32C795.273 530.146 794.647 529.337 793.892 528.401C792.473 526.643 791.249 524.438 790.137 522.468C785.221 528.317 781.912 535.681 779.008 542.696C783.237 548.805 805.8 580.459 805.875 584.743C798.47 579.784 781.984 546.453 776.451 544.425C773.496 545.557 764.414 559.547 762.572 562.797C760.743 558.613 759.037 554.295 756.918 550.251L757.044 549.877L756.002 549.818L756.481 549.465L755.774 548.581C754.939 552.681 760.39 561.061 761.416 565.439C758.505 570.853 756.354 576.919 752.39 581.679C751.221 576.015 749.442 570.461 748.258 564.78C746.156 554.691 745.143 544.576 744.386 534.31C761.087 520.937 775.497 505.853 787.674 488.211Z" fill="#37BC83"/>
<path d="M798.914 502.848L802.101 507.15C800.343 507.344 799.099 507.323 797.944 508.87C796.755 510.462 795.973 512.339 794.823 513.959C794.35 511.546 794.482 509.267 794.576 506.828C796.134 505.658 797.511 504.198 798.914 502.848Z" fill="#54D197"/>
<path d="M245.409 412.536C246.147 413.126 246.457 413.724 246.78 414.596C250.266 424.015 252.205 433.154 257.089 442.133C272.477 470.424 308.309 497.253 336.124 512.649C388.506 541.641 458.965 563.666 519.077 562.24C546.169 561.597 574.178 556.302 600.175 548.814C652.646 533.7 729.864 499.607 761.142 452.321C762.3 450.57 763.396 448.782 764.431 446.955C765.466 445.128 766.436 443.268 767.342 441.375C768.248 439.481 769.088 437.558 769.862 435.607C770.636 433.656 771.342 431.68 771.979 429.68C772.874 426.79 775.377 413.728 776.225 412.457C776.335 412.293 776.487 412.16 776.618 412.012C786.547 428.216 794.696 445.374 790.111 464.789C782.557 496.777 742.26 529.588 715.051 546.125C712.341 547.783 709.611 549.407 706.86 550.998C704.11 552.589 701.341 554.145 698.552 555.667C695.763 557.189 692.956 558.677 690.13 560.13C687.305 561.583 684.462 563 681.601 564.383C678.74 565.766 675.863 567.113 672.97 568.424C670.076 569.735 667.166 571.011 664.241 572.25C661.316 573.49 658.375 574.693 655.42 575.86C652.465 577.027 649.496 578.158 646.513 579.251C643.53 580.344 640.534 581.401 637.525 582.421C634.516 583.44 631.494 584.423 628.461 585.368C625.428 586.313 622.383 587.22 619.327 588.089C616.272 588.959 613.206 589.791 610.129 590.585C607.052 591.379 603.967 592.135 600.872 592.852C597.777 593.57 594.673 594.249 591.562 594.89C588.45 595.531 585.331 596.134 582.204 596.698C579.077 597.262 575.944 597.787 572.804 598.273C569.665 598.76 566.52 599.207 563.369 599.616C560.218 600.025 557.063 600.395 553.903 600.726C550.743 601.057 547.579 601.348 544.412 601.601C541.245 601.854 538.076 602.067 534.903 602.242C531.731 602.416 528.557 602.551 525.381 602.647C522.206 602.743 519.029 602.8 515.852 602.817C512.675 602.835 509.498 602.813 506.321 602.752C503.145 602.691 499.97 602.591 496.795 602.451C493.621 602.312 490.449 602.133 487.28 601.915C484.11 601.698 480.943 601.441 477.78 601.144C474.617 600.848 471.458 600.513 468.303 600.139C465.148 599.765 461.998 599.352 458.853 598.9C455.708 598.448 452.57 597.957 449.437 597.428C446.304 596.898 443.179 596.33 440.06 595.723C436.941 595.116 433.83 594.471 430.727 593.788C427.624 593.104 424.531 592.382 421.446 591.622C358.087 576.038 277.42 540.962 242.045 482.709C233.834 469.188 229.895 455.763 233.701 440.09C236.049 430.423 240.513 421.155 245.409 412.536Z" fill="#84C462"/>
<path d="M258.734 698.618C265.027 699.931 270.155 700.124 276.51 699.066C277.905 708.318 280.431 717.515 284.873 725.794C289.778 734.937 298.76 744.333 309.031 747.161C315.453 748.928 321.299 747.386 326.916 744.156C329.023 752.221 331.645 759.772 336.509 766.629C342.461 775.019 351.76 782.607 362.2 784.148C370.451 785.366 377.222 782.112 383.632 777.387C388.739 793.522 397.658 810.444 410.731 821.496C415.533 825.555 421.365 828.585 427.831 827.897C439.621 826.644 448.368 816.113 455.463 807.646C464.329 829.758 472.219 848.786 494.52 860.647C503.053 865.185 511.815 867.357 521.321 864.365C545.13 856.871 559.359 833.253 570.177 812.507C575.344 817.738 581.888 822.647 588.856 825.165C595.336 827.506 601.943 827.393 608.19 824.377C623.741 816.869 632.824 795.383 638.129 780.029C641.252 781.815 644.41 783.388 647.916 784.268C648.39 784.383 648.867 784.486 649.346 784.578C649.825 784.669 650.306 784.749 650.789 784.816C651.272 784.884 651.757 784.94 652.243 784.984C652.728 785.027 653.215 785.059 653.702 785.079C654.19 785.099 654.678 785.107 655.165 785.102C655.653 785.098 656.14 785.082 656.627 785.054C657.114 785.025 657.6 784.985 658.085 784.933C658.57 784.88 659.054 784.816 659.536 784.74C660.017 784.664 660.497 784.576 660.975 784.477C661.452 784.377 661.927 784.265 662.399 784.142C662.871 784.019 663.34 783.884 663.805 783.738C664.27 783.591 664.732 783.434 665.189 783.265C665.647 783.096 666.1 782.915 666.549 782.724C666.998 782.533 667.441 782.33 667.88 782.117C668.319 781.904 668.752 781.68 669.179 781.445C669.607 781.21 670.029 780.965 670.444 780.71C683.616 772.739 688.814 758.727 692.324 744.573C695.147 745.938 698.044 746.885 701.143 747.352C709.535 748.617 717.335 745.62 724.002 740.706C737.108 731.046 744.075 716.204 746.375 700.373C752.893 701.572 759.204 701.064 765.677 699.876C769.918 717.014 774.667 734.037 777.925 751.407C778.922 756.726 778.199 768.227 779.845 772.136C778.877 775.134 777.946 778.264 776.373 781.013C775.458 782.611 774.093 784.315 772.175 784.665C762.639 786.401 761.406 763.804 757.345 760.865L757.081 762.317C756.955 762.523 756.824 762.727 756.702 762.935C754.77 766.236 753.51 773.152 752.221 777.066C748.304 788.956 735.745 823.095 724.171 826.955C723.98 827.02 723.787 827.076 723.59 827.121C723.394 827.167 723.196 827.203 722.995 827.228C722.795 827.253 722.594 827.267 722.393 827.272C722.192 827.277 721.99 827.271 721.789 827.255C721.588 827.24 721.388 827.214 721.19 827.177C720.991 827.14 720.795 827.094 720.602 827.038C720.409 826.981 720.218 826.915 720.031 826.839C719.844 826.763 719.662 826.678 719.484 826.583C715.94 824.662 713.644 817.631 712.034 814.058C711.674 810.159 711.526 805.873 710.129 802.194C710.031 802.323 709.931 802.45 709.836 802.58C705.714 808.262 703.47 816.567 700.566 823.01C694.775 835.857 678.523 866.027 663.949 869.009C663.206 869.161 662.515 869.045 661.783 868.912C658.072 865.402 658.575 858.533 655.491 854.489C655.598 849.992 655.505 845.512 655.403 841.016C654.536 843.404 653.934 845.894 653.264 848.344C653.155 848.437 653.043 848.528 652.936 848.623C648.516 852.539 645.439 858.41 641.669 863.004C628.302 879.295 608.556 898.758 585.777 897.029C585.168 896.982 585.111 896.962 584.594 896.872C588.708 889.121 591.178 880.633 592.671 872.024C590.744 874.509 589.379 877.365 587.905 880.133C584.436 881.786 580.606 886.644 577.658 889.363C567.66 898.587 556.647 905.337 543.784 909.83C542.805 910.181 541.82 910.516 540.829 910.834C539.838 911.153 538.843 911.455 537.842 911.74C536.841 912.025 535.836 912.293 534.827 912.545C533.817 912.797 532.803 913.032 531.786 913.25C530.769 913.468 529.748 913.669 528.724 913.853C527.7 914.037 526.673 914.204 525.643 914.354C524.614 914.504 523.582 914.637 522.548 914.752C521.514 914.867 520.478 914.966 519.441 915.047C518.404 915.128 517.365 915.191 516.325 915.238C515.286 915.285 514.246 915.314 513.205 915.326C512.165 915.337 511.125 915.332 510.084 915.309C509.044 915.286 508.005 915.246 506.966 915.189C505.927 915.132 504.889 915.057 503.853 914.965C502.816 914.873 501.782 914.764 500.749 914.638C499.716 914.511 498.685 914.368 497.657 914.207C496.629 914.047 495.604 913.869 494.582 913.674C493.56 913.479 492.541 913.268 491.526 913.039C490.511 912.81 489.5 912.565 488.493 912.303C487.486 912.04 486.484 911.761 485.487 911.466C484.489 911.17 483.496 910.858 482.509 910.529C481.522 910.2 480.54 909.855 479.565 909.494C478.589 909.133 477.619 908.755 476.656 908.362C475.693 907.968 474.737 907.558 473.787 907.133C472.838 906.708 471.896 906.267 470.961 905.81C470.026 905.353 469.099 904.881 468.18 904.393C467.261 903.905 466.35 903.402 465.447 902.885C464.545 902.367 463.652 901.834 462.767 901.286C461.882 900.738 461.007 900.176 460.141 899.599C459.275 899.022 458.419 898.431 457.572 897.826C456.726 897.221 455.89 896.601 455.065 895.968C454.239 895.335 453.424 894.688 452.62 894.028C451.816 893.367 451.023 892.694 450.241 892.007C447.684 889.804 437.477 878.236 435.977 877.611C435.726 877.507 435.467 877.42 435.211 877.324C433.053 873.831 431.231 870.149 429.09 866.659C431.072 876.567 436.116 885.699 440.884 894.524C438.907 895.677 436 895.534 433.755 895.523C415.139 895.428 394.05 879.257 382.736 865.619C379.678 861.934 374.755 853.369 372.209 850.935C372.001 850.737 371.785 850.548 371.573 850.354C370.959 847.832 370.408 845.354 369.368 842.965L368.694 842.772L368.177 844.23C366.565 856.149 368.013 864.263 368.099 875.754C347.857 868.65 330.194 840.764 323.143 821.553C321.206 816.273 319.388 805.927 316.886 801.553C316.752 801.32 316.61 801.091 316.472 800.861C316.443 797.109 316.551 793.292 316.178 789.56C312.122 801.338 312.073 814.574 312.072 826.935C311.142 826.783 310.226 826.615 309.313 826.377C291.955 821.844 277.989 796.686 272.042 781.138C270.57 777.291 270.205 771.511 268.058 768.175C267.91 767.946 267.752 767.725 267.6 767.499C268.343 763.93 268.955 760.478 269.211 756.838C265.04 764.284 263.071 772.758 258.893 780.215C253.282 771.124 253.29 741.146 254.201 729.858C255.047 719.371 256.854 708.961 258.734 698.618Z" fill="#84C462"/>
<path d="M714.343 597.343C718.617 600.817 722.806 602.759 728.428 602.27C732.386 601.925 736.247 600.462 739.642 598.446C742.377 617.268 747.331 636.02 751.329 654.618C752.916 662.002 755.304 670.118 755.614 677.649C754.299 677.659 752.976 677.656 751.679 677.413C739.715 675.172 731.63 662.078 725.36 652.798C729.612 668.655 736.251 686.085 730.899 702.509C728.425 710.1 723.337 717.41 716.014 720.975C711.637 723.106 706.813 723.42 702.219 721.788C690.372 717.579 685.512 705.162 680.319 694.848C680.711 708.292 682.779 721.352 679.855 734.724C677.752 744.336 673.294 755.078 664.572 760.476C660.763 762.834 656.609 763.97 652.191 762.784C639.129 759.277 632.319 738.279 626.144 727.826C625.5 732.517 625.603 737.308 625.284 742.031C625.037 745.636 624.627 749.222 624.052 752.789C623.477 756.356 622.74 759.89 621.841 763.389C619.19 773.785 611.872 794.426 601.892 799.987C598.758 801.734 595.305 801.892 591.909 800.862C577.4 796.459 568.499 777.787 561.906 765.537C556.184 786.155 548.409 810.192 534.812 827C529.557 833.496 521.866 840.85 513.104 841.535C506.504 842.052 500.586 838.405 495.76 834.284C473.988 815.69 468.148 786.832 465.97 759.718C462.339 764.635 459.538 770.332 456.276 775.522C449.867 785.722 439.058 800.833 426.979 804.532C425.694 803.923 424.454 803.266 423.287 802.448C410.353 793.386 402.522 767.814 399.431 753.21C397.92 746.072 397.206 738.773 396.048 731.571C390.692 739.384 387.139 748.335 380.492 755.27C376.943 758.973 372.135 762.762 366.771 762.705C361.937 762.654 357.404 759.618 354.262 756.15C341.681 742.267 341.368 715.176 342.5 697.675C338.631 705.781 334.653 714.085 327.944 720.268C324.47 723.469 319.707 726.807 314.776 726.475C311.161 726.232 308.189 724.118 305.89 721.442C290.811 703.895 292.301 671.751 294.258 649.895C288.521 658.951 282.114 671.072 272.256 676.209C268.699 678.062 265.743 678.517 261.946 677.256C262.992 662.765 280.274 617.669 288.05 604.175C294.462 604.2 300.006 603.412 306.234 601.896C308.632 615.981 315.972 638.897 327.972 647.282C333.607 651.219 340.173 652.793 346.95 651.5C351.943 650.548 356.211 648.269 360.576 645.766C366.348 664.957 375.524 684.696 393.953 694.724C403.963 700.171 414.672 701.192 425.55 697.908C435.899 694.784 444.057 687.715 452.379 681.122C462.74 700.973 480.826 727.581 503.023 734.507C511.095 737.026 518.905 736.094 526.374 732.167C546.31 721.683 561.516 700.977 572.394 681.785C583.902 691.451 601.209 706.192 617.376 704.84C626.302 704.093 632.96 697.524 638.296 690.931C649.639 676.918 656.578 660.829 663.428 644.337C670.582 648.395 678.042 651.441 686.422 649.128C694.501 646.898 699.74 640.026 703.563 632.998C709.697 621.721 712.332 609.88 714.343 597.343Z" fill="#BBDC7D"/>
<path d="M255.257 296.947L256.612 297.707C260.344 297.55 264.748 292.193 267.207 289.637C272.508 284.126 277.893 278.887 283.858 274.091C288.305 270.516 296.498 267.033 299.665 262.656C303.093 257.916 304.697 250.806 306.822 245.352C314.174 226.482 324.888 209.39 340.498 196.232C380.716 162.331 419.503 164.885 464.024 188.938C473.933 194.291 484.323 200.136 493.369 206.831C496.328 209.021 508.915 219.958 511.229 219.374C517.134 217.885 525.889 209.013 531.171 205.279C556.787 187.17 594.522 167.915 626.749 170.799C666.877 174.39 700.486 203.037 715.92 239.403C719.365 247.522 721.911 262.684 726.103 269.01C731.026 276.441 741.501 279.895 747.402 286.891C747.128 286.882 746.854 286.879 746.581 286.863C743.044 286.664 740.735 284.089 737.135 285.821C736.436 286.94 736.335 287.831 736.589 289.108C737.148 291.917 739.09 296.156 741.534 297.784C744.301 301.532 747.895 304.747 751.195 308.026C752.011 311.411 760.386 322.688 762.762 328.436C764.211 331.939 766.46 338.325 764.524 341.824C763.864 343.016 762.722 343.643 761.453 343.988C758.169 344.879 754.039 341.906 751.251 340.308C748.817 338.912 744.683 336.003 741.809 337.038C739.83 337.75 740.993 341.646 741.402 343.1C745.216 356.671 755.864 373.374 750.118 387.805C746.062 397.992 736.299 386.432 730.859 389.734C727.462 391.796 728.908 398.77 728.359 402.156C726.806 411.745 721.806 425.163 713.547 431.042C706.83 435.823 700.916 429.596 694.315 428.791C692.992 428.629 691.762 428.841 690.65 429.61C686.07 432.78 677.657 453.523 668.103 460.488C663.57 463.793 659.747 463.645 654.53 462.73C651.34 460.131 649.449 453.964 645.386 452.877C637.375 450.732 624.735 474.145 616.605 479.12C615.795 479.616 614.981 480.096 614.156 480.567C603.386 486.711 595.021 477.342 584.254 478.197C576.065 478.848 568.063 481.897 560.235 484.209C545.202 488.65 529.264 493.075 513.507 493.526C497.89 493.973 478.707 489.425 463.88 484.749C455.346 482.057 445.688 477.887 436.746 477.422C429.127 477.026 423.933 482.888 416.816 482.977C403.003 483.15 393.685 464.019 385.053 455.672C383.318 453.994 381.374 452.75 378.845 453.011C373.182 453.594 376.166 461.628 373.91 464.882C370.188 465.997 366.457 467.119 362.589 467.605C360.344 467.887 358.023 466.415 356.153 465.334C339.095 455.47 340.902 433.485 333.759 427.973C330.067 427.441 327.537 432.338 324.67 434.256C323.288 435.181 321.502 435.77 319.959 436.38C319.27 436.158 318.587 435.92 317.91 435.667C305.616 431.025 300.242 416.486 298.578 404.476C298.158 401.447 298.598 396.942 297.129 394.225C296.489 393.043 295.739 392.792 294.526 392.444C290.423 393.184 289.084 397.43 286.019 399.752C284.782 400.69 283.332 401.095 281.793 400.749C280.305 400.415 279.201 399.378 278.373 398.148C270.386 386.284 275.275 355.625 277.784 341.683C275.495 343.184 273.062 344.457 270.667 345.778C268.643 344.809 266.552 343.873 264.919 342.291C251.263 329.063 275.372 308.132 275.064 301.406L275.039 301.16C275.184 301.109 275.334 301.071 275.472 301.005C276.598 300.473 277.323 299.454 277.748 298.315C278.139 297.268 278.017 297.476 277.604 296.564C272.481 295.333 264.835 301.956 259.953 303.65C258.436 304.176 257.151 304.402 255.679 303.65C254.217 301.445 254.851 299.445 255.257 296.947Z" fill="#BBDC7D"/>
<path d="M613.281 306.998C612.697 304.127 612.383 301.228 612.34 298.299C612.097 287.144 615.65 276.016 623.561 267.94C623.957 267.538 624.363 267.146 624.779 266.764C625.194 266.382 625.619 266.011 626.052 265.65C626.486 265.289 626.928 264.938 627.379 264.599C627.83 264.26 628.289 263.931 628.756 263.614C629.223 263.297 629.697 262.992 630.179 262.698C630.661 262.405 631.15 262.123 631.645 261.853C632.141 261.584 632.643 261.326 633.151 261.081C633.66 260.836 634.174 260.603 634.694 260.384C635.213 260.164 635.738 259.957 636.268 259.762C636.798 259.568 637.332 259.387 637.871 259.219C638.41 259.051 638.952 258.896 639.499 258.755C640.045 258.614 640.594 258.486 641.147 258.371C641.7 258.257 642.255 258.156 642.812 258.069C643.37 257.982 643.929 257.908 644.49 257.848C645.051 257.789 645.614 257.743 646.177 257.71C646.741 257.678 647.305 257.66 647.869 257.655C657.552 257.583 666.714 261.832 673.49 268.648C681.489 276.694 685.428 287.382 685.474 298.632C685.309 298.396 685.139 298.164 684.981 297.923C683.199 295.21 682.817 290.016 681.897 286.795C678.55 275.073 668.439 264.565 656.5 261.585C648.541 259.599 638.588 260.678 631.631 265.107C623.485 270.294 617.255 279.397 615.377 288.768C614.554 292.874 615.204 304.328 613.281 306.998Z" fill="black"/>
<path d="M373.841 339.119C372.797 339.061 371.791 338.983 370.763 338.78C361.636 336.98 353.976 331.912 348.868 324.11C342.491 314.37 340.681 300.878 343.084 289.609C345.453 278.496 351.834 268.354 361.473 262.193C369.156 257.283 378.235 255.325 387.191 257.315C395.927 259.257 403.27 264.732 408.028 272.256C414.462 282.431 415.866 294.895 413.318 306.512C411.689 303.512 412.909 296.999 412.631 293.463C412.404 290.582 411.541 287.583 410.548 284.878C407.323 276.087 401.06 268.443 392.405 264.587C384.964 261.272 376.797 261.472 369.284 264.407C365.838 265.753 361.993 267.739 360.464 271.255C358.011 273.816 355.974 276.23 354.318 279.403C352.88 279.783 352.448 279.681 351.639 280.974C346.002 289.985 345.574 305.907 348.836 315.766C351.596 324.109 357.743 331.918 365.685 335.857C367.448 336.732 373.123 337.747 373.841 339.119Z" fill="black"/>
<path d="M462.564 346.848C467.948 367.072 481.597 399.565 500.535 410.485C505.688 413.456 511.281 414.607 517.07 412.871C532.24 408.323 544.202 388.905 551.014 375.621C555.641 366.597 559.626 356.784 561.858 346.861C564.209 352.912 562.682 362.839 561.464 369.05C557.766 387.909 544.513 407.653 528.464 418.244C522.001 422.51 514.874 425.101 507.045 423.38C493.217 420.341 479.81 405.442 472.593 394.019C463.858 380.195 458.877 363.165 462.564 346.848Z" fill="#84C462"/>
<path d="M344.302 349.654C352.57 349.185 360.532 350.431 367.659 354.911C371.886 357.567 375.636 361.472 376.603 366.527C377.315 370.253 376.263 374.021 374.021 377.041C369.397 383.269 361.396 385.637 354.114 386.889C345.832 387.709 336.726 386.39 329.607 381.868C325.529 379.277 322.019 375.413 321.086 370.544C320.351 366.708 321.329 362.854 323.62 359.715C328.388 353.18 336.692 350.771 344.302 349.654Z" fill="#EDA37F"/>
<path d="M670.617 348.196C678.288 347.306 688.417 349.21 694.616 353.933C697.999 356.511 700.52 360.239 700.945 364.541C701.38 368.953 699.471 373.242 696.666 376.556C690.838 383.441 682.661 385.495 674.118 386.39C666.698 386.906 657.576 385.511 651.336 381.257C647.497 378.64 644.449 374.654 643.806 369.963C643.228 365.742 644.833 361.608 647.507 358.384C653.193 351.527 662.137 349.08 670.617 348.196Z" fill="#EDA37F"/>
<path d="M360.464 271.255C361.993 267.739 365.838 265.753 369.284 264.407C376.797 261.472 384.964 261.272 392.405 264.587C401.06 268.443 407.323 276.087 410.548 284.878C411.541 287.583 412.404 290.582 412.631 293.463C412.909 296.999 411.689 303.512 413.318 306.512C411.436 316.973 404.942 326.889 396.274 333C390.54 337.043 382.223 340.553 375.068 339.421C374.572 339.342 374.352 339.262 373.841 339.119C373.123 337.747 367.448 336.732 365.685 335.857C357.743 331.918 351.596 324.109 348.836 315.766C345.574 305.907 346.002 289.985 351.639 280.974C352.448 279.681 352.88 279.783 354.318 279.403C355.974 276.23 358.011 273.816 360.464 271.255Z" fill="#1F1633"/>
<path d="M382.093 296.965C382.922 296.968 383.948 296.906 384.748 297.11C386.235 297.489 387.502 298.589 388.187 299.95C388.946 301.456 388.963 303.058 388.45 304.64C387.753 306.79 386.529 307.68 384.603 308.72C382.619 308.649 380.566 308.361 379.191 306.763C378.107 305.503 377.705 304.087 377.965 302.461C378.399 299.754 379.969 298.488 382.093 296.965Z" fill="#FEFEFE"/>
<path d="M360.464 271.255C364.068 269.785 367.569 268.677 371.334 270.416C371.664 270.569 371.986 270.739 372.299 270.926C372.612 271.112 372.914 271.314 373.207 271.531C373.499 271.748 373.779 271.98 374.048 272.226C374.317 272.471 374.572 272.73 374.815 273.002C375.058 273.273 375.286 273.557 375.499 273.852C375.713 274.147 375.911 274.452 376.094 274.767C376.276 275.082 376.442 275.406 376.592 275.738C376.741 276.07 376.874 276.409 376.989 276.754C378.273 280.636 377.894 285.635 376.042 289.281C374.464 292.388 371.748 294.752 368.38 295.712C367.974 295.828 367.563 295.923 367.147 295.996C366.732 296.069 366.313 296.12 365.892 296.149C365.471 296.178 365.049 296.186 364.627 296.171C364.205 296.156 363.785 296.119 363.367 296.06C362.949 296.001 362.535 295.92 362.126 295.818C361.716 295.715 361.313 295.592 360.916 295.447C360.519 295.303 360.131 295.138 359.752 294.953C359.373 294.768 359.004 294.563 358.646 294.339C355.999 292.664 354.272 289.972 353.683 286.909C353.195 284.369 353.627 281.857 354.318 279.403C355.974 276.23 358.011 273.816 360.464 271.255Z" fill="#FEFEFE"/>
<path d="M613.281 306.998C615.204 304.328 614.554 292.874 615.377 288.768C617.255 279.397 623.485 270.294 631.631 265.107C638.588 260.678 648.541 259.599 656.5 261.585C668.439 264.565 678.55 275.073 681.897 286.795C682.817 290.016 683.199 295.21 684.981 297.923C685.139 298.164 685.309 298.396 685.474 298.632C685.729 308.662 682.063 319.018 675.15 326.364C668.755 333.16 659.353 337.497 650 337.663C649.402 337.673 648.804 337.669 648.206 337.65C647.609 337.631 647.012 337.597 646.416 337.548C645.819 337.499 645.225 337.435 644.632 337.357C644.039 337.279 643.449 337.186 642.86 337.079C642.272 336.972 641.687 336.85 641.104 336.713C640.522 336.577 639.943 336.427 639.368 336.262C638.793 336.097 638.223 335.917 637.657 335.724C637.091 335.531 636.53 335.324 635.974 335.103C635.419 334.882 634.869 334.648 634.324 334.4C633.78 334.152 633.242 333.891 632.711 333.616C632.18 333.341 631.656 333.054 631.139 332.753C630.622 332.452 630.112 332.139 629.611 331.813C629.11 331.488 628.616 331.15 628.131 330.799C627.646 330.449 627.171 330.087 626.704 329.714C626.237 329.34 625.779 328.955 625.331 328.558C624.884 328.162 624.446 327.755 624.018 327.337C618.517 321.973 614.634 314.564 613.281 306.998Z" fill="#1F1633"/>
<path d="M652.482 299.888C654.442 299.905 655.92 299.862 657.361 301.382C658.489 302.572 658.827 303.849 658.702 305.454C658.535 307.615 657.209 308.901 655.596 310.15C653.777 310.125 652.19 309.994 650.804 308.64C649.934 307.79 649.464 306.722 649.458 305.495C649.447 302.959 650.721 301.53 652.482 299.888Z" fill="#FEFEFE"/>
<path d="M635.765 270.593C638.224 270.432 640.796 270.882 643 272.003C646.464 273.763 648.938 276.982 649.972 280.706C651.03 284.517 650.617 288.768 648.572 292.183C646.527 295.598 643.912 297.039 640.18 298.07C637.9 298.119 635.74 297.946 633.608 297.067C633.162 296.884 632.726 296.678 632.301 296.451C631.876 296.223 631.464 295.974 631.064 295.703C630.665 295.433 630.28 295.143 629.911 294.834C629.541 294.524 629.188 294.196 628.852 293.85C628.516 293.505 628.198 293.143 627.899 292.764C627.6 292.385 627.322 291.993 627.063 291.586C626.804 291.179 626.567 290.759 626.352 290.328C626.136 289.897 625.943 289.455 625.773 289.004C625.606 288.561 625.463 288.11 625.343 287.653C625.222 287.195 625.125 286.732 625.052 286.265C624.978 285.797 624.928 285.327 624.903 284.854C624.878 284.381 624.876 283.909 624.898 283.436C624.921 282.963 624.967 282.493 625.037 282.025C625.108 281.556 625.202 281.093 625.319 280.635C625.436 280.176 625.577 279.725 625.74 279.28C625.904 278.836 626.09 278.401 626.297 277.976C628.347 273.824 631.497 271.949 635.765 270.593Z" fill="#FEFEFE"/>
<path d="M462.564 346.848C459.474 331.449 456.507 317.134 465.804 303.198C473.783 291.239 487.014 283.556 500.966 280.808C515.813 277.883 531.882 280.864 544.4 289.479C554.122 296.171 562.298 306.201 564.384 318.048C565.996 327.194 564.07 337.918 561.858 346.861C559.626 356.784 555.641 366.597 551.014 375.621C544.202 388.905 532.24 408.323 517.07 412.871C511.281 414.607 505.688 413.456 500.535 410.485C481.597 399.565 467.948 367.072 462.564 346.848Z" fill="black"/>
<path d="M555.495 309.86C557.515 314.326 558.352 318.131 558.856 323.007C558.549 332.105 557.488 341.676 554.581 350.347C550.089 368.049 536.516 395.723 520.102 405.135C516.148 407.403 511.729 408.299 507.285 407.031C499.707 404.869 493.226 397.069 488.965 390.777C495.174 392.93 501.198 395.013 507.819 393.138C509.434 392.681 510.891 391.834 512.468 391.357C512.414 388.134 514.403 384.245 515.333 381.121C512.479 371.284 541.313 340.064 547.741 329.44C551.482 323.257 553.728 316.812 555.495 309.86Z" fill="#DCA534"/>
<path d="M541.418 358.119C542.825 350.189 549.918 345.122 552.986 337.747C554.759 333.486 554.818 326.097 557.659 322.856L558.856 323.007C558.549 332.105 557.488 341.676 554.581 350.347C551.153 353.135 546.013 358.06 541.418 358.119Z" fill="url(#paint1_linear_1_850)"/>
<path d="M515.333 381.121C521.012 370.608 528.022 363.007 534.658 353.34C538.421 347.859 541.161 341.985 544.223 336.119C543.762 343.304 542.198 349.273 539.248 355.843C536.494 359.42 534.111 363.155 531.203 366.651C526.136 372.744 520.467 378.439 516.093 385.068C514.692 387.19 514.069 389.476 512.825 391.61L512.468 391.357C512.414 388.134 514.403 384.245 515.333 381.121Z" fill="black"/>
<path d="M472.839 302.229C481.634 291.853 494.505 285.819 508.039 284.766C520.701 283.78 535.203 287.809 544.89 296.178C549.357 300.037 552.803 304.624 555.495 309.86C553.728 316.812 551.482 323.257 547.741 329.44C541.313 340.064 512.479 371.284 515.333 381.121C514.403 384.245 512.414 388.134 512.468 391.357C510.891 391.834 509.434 392.681 507.819 393.138C501.198 395.013 495.174 392.93 488.965 390.777C488.071 389.62 487.231 388.424 486.444 387.191C475.341 369.883 461.849 336.951 466.242 316.511C467.415 311.212 469.699 306.616 472.839 302.229Z" fill="#FEE86B"/>
<path d="M466.242 316.511C467.415 311.212 469.699 306.616 472.839 302.229C473.03 310.441 472.957 319.526 475.923 327.288C481.904 342.941 509.864 365.734 506.485 382.032L505.957 382.265C502.48 379.953 499.421 374.116 496.472 370.864C496.217 370.859 495.96 370.877 495.707 370.848C489.143 370.111 472.2 342.417 470.28 336.078C468.906 331.541 468.755 319.386 466.242 316.511Z" fill="#DCA534"/>
<path d="M496.472 370.864C485.766 357.538 479.738 353.025 478.547 335.193C480.855 340.391 483.175 345.422 486.392 350.143C493.508 360.585 502.852 369.513 506.485 382.032L505.957 382.265C502.48 379.953 499.421 374.116 496.472 370.864Z" fill="black"/>
</g>
<defs>
<linearGradient id="paint0_linear_1_850" x1="144.904" y1="871.34" x2="138.762" y2="821.812" gradientUnits="userSpaceOnUse">
<stop stop-color="#0EAC72"/>
<stop offset="1" stop-color="#40DD9E"/>
</linearGradient>
<linearGradient id="paint1_linear_1_850" x1="559.827" y1="326.068" x2="545.276" y2="357.774" gradientUnits="userSpaceOnUse">
<stop stop-color="#FFD94C"/>
<stop offset="1" stop-color="#FFF876"/>
</linearGradient>
<clipPath id="clip0_1_850">
<rect width="1024" height="1024" fill="white"/>
</clipPath>
</defs>
</svg>
